# Blender 3.5.1
# www.blender.org
mtllib tree2.mtl
o Material2.350
v 0.008711 -0.005900 -0.026811
v 0.008711 -0.005900 -0.026811
v 0.008711 -0.005900 -0.026811
v 0.018180 0.073328 0.001472
v 0.018180 0.073328 0.001472
v 0.018180 0.073328 0.001472
v 0.018180 0.073328 0.001472
v 0.018180 0.073328 0.001472
v 0.018180 0.073328 0.001472
v 0.028190 -0.005900 0.000000
v 0.028190 -0.005900 0.000000
v 0.028190 -0.005900 0.000000
v 0.006390 0.074668 -0.017728
v 0.006390 0.074668 -0.017728
v 0.006390 0.074668 -0.017728
v 0.006390 0.074668 -0.017728
v 0.006390 0.074668 -0.017728
v 0.006390 0.074668 -0.017728
v 0.007689 0.074690 0.018571
v 0.007689 0.074690 0.018571
v 0.007689 0.074690 0.018571
v 0.007689 0.074690 0.018571
v 0.007689 0.074690 0.018571
v 0.007689 0.074690 0.018571
v 0.013863 0.178423 -0.000990
v 0.013863 0.178423 -0.000990
v 0.013863 0.178423 -0.000990
v 0.013863 0.178423 -0.000990
v 0.013863 0.178423 -0.000990
v 0.013863 0.178423 -0.000990
v -0.022807 -0.005900 -0.016570
v -0.022807 -0.005900 -0.016570
v -0.022807 -0.005900 -0.016570
v 0.003644 0.176616 0.014076
v 0.003644 0.176616 0.014076
v 0.003644 0.176616 0.014076
v 0.003644 0.176616 0.014076
v 0.003644 0.176616 0.014076
v 0.003644 0.176616 0.014076
v 0.008711 -0.005900 0.026811
v 0.008711 -0.005900 0.026811
v 0.008711 -0.005900 0.026811
v 0.003264 0.178146 -0.011964
v 0.003264 0.178146 -0.011964
v 0.003264 0.178146 -0.011964
v 0.003264 0.178146 -0.011964
v 0.003264 0.178146 -0.011964
v 0.003264 0.178146 -0.011964
v -0.017080 0.075611 -0.013620
v -0.017080 0.075611 -0.013620
v -0.017080 0.075611 -0.013620
v -0.017080 0.075611 -0.013620
v -0.017080 0.075611 -0.013620
v -0.017080 0.075611 -0.013620
v -0.010359 0.176286 0.009540
v -0.010359 0.176286 0.009540
v -0.010359 0.176286 0.009540
v -0.010359 0.176286 0.009540
v -0.010359 0.176286 0.009540
v -0.010359 0.176286 0.009540
v -0.014248 0.073562 0.012716
v -0.014248 0.073562 0.012716
v -0.014248 0.073562 0.012716
v -0.014248 0.073562 0.012716
v -0.014248 0.073562 0.012716
v -0.014248 0.073562 0.012716
v 0.012143 0.258143 -0.000709
v 0.012143 0.258143 -0.000709
v 0.012143 0.258143 -0.000709
v 0.012143 0.258143 -0.000709
v 0.012143 0.258143 -0.000709
v 0.012143 0.258143 -0.000709
v 0.003819 0.257636 0.013700
v 0.003819 0.257636 0.013700
v 0.003819 0.257636 0.013700
v 0.003819 0.257636 0.013700
v 0.003819 0.257636 0.013700
v 0.003819 0.257636 0.013700
v -0.022807 -0.005900 0.016570
v -0.022807 -0.005900 0.016570
v -0.022807 -0.005900 0.016570
v -0.011769 0.257728 0.009251
v -0.011769 0.257728 0.009251
v -0.011769 0.257728 0.009251
v -0.011769 0.257728 0.009251
v -0.011769 0.257728 0.009251
v -0.011769 0.257728 0.009251
v 0.004880 0.257269 -0.013572
v 0.004880 0.257269 -0.013572
v 0.004880 0.257269 -0.013572
v 0.004880 0.257269 -0.013572
v 0.004880 0.257269 -0.013572
v 0.004880 0.257269 -0.013572
v -0.011997 0.178327 -0.007162
v -0.011997 0.178327 -0.007162
v -0.011997 0.178327 -0.007162
v -0.011997 0.178327 -0.007162
v -0.011997 0.178327 -0.007162
v -0.011997 0.178327 -0.007162
v -0.010809 0.256460 -0.008181
v -0.010809 0.256460 -0.008181
v -0.010809 0.256460 -0.008181
v -0.010809 0.256460 -0.008181
v -0.010809 0.256460 -0.008181
v -0.010809 0.256460 -0.008181
v 0.010898 0.360666 0.000774
v 0.010898 0.360666 0.000774
v 0.010898 0.360666 0.000774
v 0.010898 0.360666 0.000774
v 0.010898 0.360666 0.000774
v 0.010898 0.360666 0.000774
v 0.002327 0.360181 0.011082
v 0.002327 0.360181 0.011082
v 0.002327 0.360181 0.011082
v 0.002327 0.360181 0.011082
v 0.002327 0.360181 0.011082
v 0.002327 0.360181 0.011082
v -0.008696 0.359308 0.005982
v -0.008696 0.359308 0.005982
v -0.008696 0.359308 0.005982
v -0.008696 0.359308 0.005982
v -0.008696 0.359308 0.005982
v -0.008696 0.359308 0.005982
v -0.010117 0.360541 -0.006046
v -0.010117 0.360541 -0.006046
v -0.010117 0.360541 -0.006046
v -0.010117 0.360541 -0.006046
v -0.010117 0.360541 -0.006046
v -0.010117 0.360541 -0.006046
v 0.002761 0.358402 -0.010073
v 0.002761 0.358402 -0.010073
v 0.002761 0.358402 -0.010073
v 0.002761 0.358402 -0.010073
v 0.002761 0.358402 -0.010073
v 0.002761 0.358402 -0.010073
v 0.008342 0.440071 -0.001873
v 0.008342 0.440071 -0.001873
v 0.008342 0.440071 -0.001873
v 0.008342 0.440071 -0.001873
v 0.008342 0.440071 -0.001873
v 0.008342 0.440071 -0.001873
v 0.001824 0.440699 0.007064
v 0.001824 0.440699 0.007064
v 0.001824 0.440699 0.007064
v 0.001824 0.440699 0.007064
v 0.001824 0.440699 0.007064
v 0.001824 0.440699 0.007064
v -0.008517 0.440365 0.002891
v -0.008517 0.440365 0.002891
v -0.008517 0.440365 0.002891
v -0.008517 0.440365 0.002891
v -0.008517 0.440365 0.002891
v -0.008517 0.440365 0.002891
v -0.008394 0.439093 -0.006358
v -0.008394 0.439093 -0.006358
v -0.008394 0.439093 -0.006358
v -0.008394 0.439093 -0.006358
v -0.008394 0.439093 -0.006358
v -0.008394 0.439093 -0.006358
v 0.002722 0.440345 -0.010057
v 0.002722 0.440345 -0.010057
v 0.002722 0.440345 -0.010057
v 0.002722 0.440345 -0.010057
v 0.002722 0.440345 -0.010057
v 0.002722 0.440345 -0.010057
v 0.004634 0.541690 -0.003669
v 0.004634 0.541690 -0.003669
v 0.004634 0.541690 -0.003669
v 0.004634 0.541690 -0.003669
v 0.004634 0.541690 -0.003669
v 0.004634 0.541690 -0.003669
v 0.000630 0.542098 0.002675
v 0.000630 0.542098 0.002675
v 0.000630 0.542098 0.002675
v 0.000630 0.542098 0.002675
v 0.000630 0.542098 0.002675
v 0.000630 0.542098 0.002675
v -0.006463 0.542909 0.000001
v -0.006463 0.542909 0.000001
v -0.006463 0.542909 0.000001
v -0.006463 0.542909 0.000001
v -0.006463 0.542909 0.000001
v -0.006463 0.542909 0.000001
v -0.006701 0.542616 -0.007443
v -0.006701 0.542616 -0.007443
v -0.006701 0.542616 -0.007443
v -0.006701 0.542616 -0.007443
v -0.006701 0.542616 -0.007443
v -0.006701 0.542616 -0.007443
v 0.000697 0.542533 -0.008854
v 0.000697 0.542533 -0.008854
v 0.000697 0.542533 -0.008854
v 0.000697 0.542533 -0.008854
v 0.000697 0.542533 -0.008854
v 0.000697 0.542533 -0.008854
v 0.003092 0.622842 -0.005135
v 0.003092 0.622842 -0.005135
v 0.003092 0.622842 -0.005135
v 0.003092 0.622842 -0.005135
v 0.003092 0.622842 -0.005135
v 0.003092 0.622842 -0.005135
v -0.000664 0.622642 -0.000243
v -0.000664 0.622642 -0.000243
v -0.000664 0.622642 -0.000243
v -0.000664 0.622642 -0.000243
v -0.000664 0.622642 -0.000243
v -0.000664 0.622642 -0.000243
v -0.006632 0.622983 -0.002166
v -0.006632 0.622983 -0.002166
v -0.006632 0.622983 -0.002166
v -0.006632 0.622983 -0.002166
v -0.006632 0.622983 -0.002166
v -0.006632 0.622983 -0.002166
v -0.005943 0.622493 -0.008017
v -0.005943 0.622493 -0.008017
v -0.005943 0.622493 -0.008017
v -0.005943 0.622493 -0.008017
v -0.005943 0.622493 -0.008017
v -0.005943 0.622493 -0.008017
v -0.000965 0.622594 -0.009283
v -0.000965 0.622594 -0.009283
v -0.000965 0.622594 -0.009283
v -0.000965 0.622594 -0.009283
v -0.000965 0.622594 -0.009283
v -0.000965 0.622594 -0.009283
v 0.000119 0.725355 -0.006769
v 0.000119 0.725355 -0.006769
v 0.000119 0.725355 -0.006769
v 0.000119 0.725355 -0.006769
v 0.000119 0.725355 -0.006769
v 0.000119 0.725355 -0.006769
v -0.001988 0.725329 -0.003592
v -0.001988 0.725329 -0.003592
v -0.001988 0.725329 -0.003592
v -0.001988 0.725329 -0.003592
v -0.001988 0.725329 -0.003592
v -0.001988 0.725329 -0.003592
v -0.005404 0.725061 -0.005095
v -0.005404 0.725061 -0.005095
v -0.005404 0.725061 -0.005095
v -0.005404 0.725061 -0.005095
v -0.005404 0.725061 -0.005095
v -0.005404 0.725061 -0.005095
v -0.005603 0.725151 -0.008430
v -0.005603 0.725151 -0.008430
v -0.005603 0.725151 -0.008430
v -0.005603 0.725151 -0.008430
v -0.005603 0.725151 -0.008430
v -0.005603 0.725151 -0.008430
v -0.002392 0.724776 -0.009188
v -0.002392 0.724776 -0.009188
v -0.002392 0.724776 -0.009188
v -0.002392 0.724776 -0.009188
v -0.002392 0.724776 -0.009188
v -0.002392 0.724776 -0.009188
v -0.000820 0.805631 -0.008037
v -0.000820 0.805631 -0.008037
v -0.000820 0.805631 -0.008037
v -0.002905 0.805663 -0.005166
v -0.002905 0.805663 -0.005166
v -0.002905 0.805663 -0.005166
v -0.006280 0.805617 -0.006262
v -0.006280 0.805617 -0.006262
v -0.006280 0.805617 -0.006262
v -0.006280 0.805556 -0.009810
v -0.006280 0.805556 -0.009810
v -0.006280 0.805556 -0.009810
v -0.002906 0.805565 -0.010907
v -0.002906 0.805565 -0.010907
v -0.002906 0.805565 -0.010907
vn 0.3105 0.1270 -0.9421
vn 0.9968 0.0805 0.0016
vn 0.9933 0.1151 -0.0125
vn 0.3104 0.1270 -0.9421
vn 0.4035 0.0664 -0.9126
vn 0.9967 0.0806 0.0016
vn 0.3723 0.0876 0.9240
vn 0.9956 0.0387 -0.0855
vn 0.4036 0.0664 -0.9125
vn -0.8003 0.0988 -0.5914
vn 0.3209 0.0253 0.9468
vn 0.3723 0.0875 0.9240
vn 0.3050 0.0937 0.9477
vn 0.4035 0.0663 -0.9126
vn 0.2530 0.0391 -0.9667
vn 0.9956 0.0388 -0.0856
vn 0.9956 0.0388 -0.0855
vn 0.3209 0.0252 0.9468
vn -0.7902 0.0823 -0.6073
vn -0.8003 0.0989 -0.5914
vn -0.7784 0.0253 0.6272
vn -0.7537 0.0883 0.6513
vn 0.9999 0.0108 -0.0005
vn 0.3710 0.0260 0.9283
vn 0.3210 0.0252 0.9468
vn -0.8038 0.0965 0.5870
vn -0.8136 0.0117 0.5813
vn -0.8038 0.0966 0.5870
vn 0.3567 0.0027 -0.9342
vn 0.2530 0.0390 -0.9667
vn 0.9999 0.0107 -0.0005
vn -0.8401 0.0383 -0.5411
vn 0.3210 0.0253 0.9468
vn -0.7971 0.0032 -0.6039
vn -0.7784 0.0252 0.6272
vn 0.9991 0.0244 0.0346
vn 0.2216 0.0290 0.9747
vn -0.8059 0.0314 0.5912
vn 0.3709 0.0260 0.9283
vn -0.8401 0.0236 -0.5419
vn -0.7971 0.0033 -0.6039
vn 0.3043 0.0216 -0.9523
vn 0.2216 0.0291 0.9747
vn -0.8401 0.0236 -0.5420
vn -0.8401 0.0237 -0.5420
vn 0.3043 0.0217 -0.9523
vn -0.7971 0.0032 -0.6038
vn 0.9995 0.0310 0.0081
vn 0.3044 0.0217 -0.9523
vn 0.3567 0.0026 -0.9342
vn 0.2751 0.0498 0.9601
vn -0.8353 0.0290 0.5491
vn -0.8059 0.0315 0.5912
vn -0.8081 0.0080 -0.5890
vn 0.3208 0.0090 -0.9471
vn 0.2751 0.0497 0.9601
vn -0.8353 0.0289 0.5491
vn -0.8059 0.0315 0.5911
vn 0.3208 0.0091 -0.9471
vn 0.9987 0.0310 -0.0416
vn 0.9995 0.0309 0.0081
vn 0.3208 0.0434 0.9461
vn -0.8123 0.0271 0.5826
vn -0.7795 0.0047 -0.6264
vn 0.3565 0.0031 -0.9343
vn 0.9987 0.0309 -0.0416
vn -0.8123 0.0271 0.5827
vn 0.3565 0.0030 -0.9343
vn 0.9980 0.0253 -0.0587
vn 0.2981 0.0357 0.9539
vn -0.8415 0.0188 0.5400
vn 0.3208 0.0435 0.9461
vn -0.7528 -0.0028 -0.6583
vn 0.2696 0.0038 -0.9630
vn 0.3209 0.0434 0.9461
vn 0.9938 0.0192 -0.1092
vn 0.9980 0.0254 -0.0587
vn 0.2812 0.0282 0.9592
vn -0.8207 0.0121 0.5713
vn 0.2981 0.0358 0.9539
vn -0.8026 -0.0069 -0.5965
vn 0.2642 -0.0044 -0.9645
vn -0.7528 -0.0027 -0.6583
vn 0.2642 -0.0045 -0.9645
vn 0.2811 0.0283 0.9592
vn 0.2812 0.0283 0.9592
vn -0.8415 0.0189 0.5400
vn -0.7528 -0.0028 -0.6582
vn 0.9245 0.1480 -0.3514
vn 0.9938 0.0193 -0.1092
vn 0.5705 0.1635 0.8048
vn -0.6428 0.1446 0.7523
vn -0.9411 0.1283 -0.3130
vn -0.8026 -0.0068 -0.5965
vn 0.0651 0.1199 -0.9906
vn 0.0650 0.1199 -0.9907
vn 0.9244 0.1481 -0.3514
vn 0.5706 0.1636 0.8048
vn -0.9411 0.1283 -0.3129
vn -0.6428 0.1445 0.7523
vn -0.9411 0.1282 -0.3129
vt 0.179033 1.045525
vt 0.198753 1.041327
vt -0.179033 1.043777
vt -0.128325 0.614776
vt -0.115548 0.611832
vt 0.087984 0.614411
vt -0.116120 0.605775
vt 0.088483 0.609490
vt 0.097901 0.608321
vt -0.179033 1.045525
vt 0.157547 1.044502
vt 0.179033 1.040444
vt 0.127884 0.604571
vt 0.127315 0.598536
vt -0.124857 0.606425
vt 0.089609 0.602872
vt -0.100702 0.601289
vt -0.100688 0.601515
vt -0.128754 0.607019
vt -0.128259 0.602122
vt -0.113500 0.603994
vt 0.140984 0.599129
vt 0.132826 0.606475
vt 0.132351 0.600233
vt -0.069085 0.037867
vt -0.096494 0.041324
vt 0.093484 0.039931
vt -0.096405 0.037287
vt 0.092943 0.036145
vt 0.084251 0.037286
vt 0.179033 1.043777
vt 0.212273 1.037037
vt -0.179033 1.040432
vt -0.109482 0.050592
vt -0.103211 0.049705
vt 0.084416 0.048245
vt -0.103755 0.045908
vt 0.084321 0.045731
vt 0.079599 0.046214
vt -0.179033 1.040444
vt 0.166852 1.043823
vt 0.179033 1.041529
vt 0.068349 0.042826
vt 0.068438 0.038786
vt -0.056790 0.041799
vt 0.095372 0.036661
vt -0.072343 0.044483
vt -0.072456 0.036933
vt 0.156739 0.596186
vt 0.156754 0.596411
vt -0.147157 0.598995
vt 0.132036 0.599958
vt -0.167495 0.603390
vt -0.166588 0.595418
vt -0.074624 0.050029
vt -0.074718 0.047515
vt -0.081308 0.050942
vt 0.108940 0.046860
vt 0.091057 0.050922
vt 0.091418 0.048770
vt -0.112494 0.612595
vt -0.112972 0.606330
vt -0.103959 0.610896
vt 0.118678 0.614530
vt 0.120883 0.606335
vt 0.119595 0.606498
vt -0.085671 -0.393454
vt -0.057648 -0.395676
vt 0.072319 -0.393447
vt -0.057966 -0.393313
vt 0.072347 -0.392733
vt 0.089772 -0.394570
vt -0.099331 -0.391785
vt -0.107478 -0.390706
vt 0.080303 -0.391484
vt -0.107449 -0.389991
vt 0.080278 -0.388194
vt 0.099742 -0.390636
vt 0.179033 1.040432
vt -0.179033 1.041529
vt 0.149360 1.046524
vt -0.090174 -0.392460
vt -0.094848 -0.391982
vt 0.106641 -0.393181
vt -0.094874 -0.388692
vt 0.106863 -0.391817
vt 0.083863 -0.389187
vt 0.101964 -0.390951
vt 0.101647 -0.388589
vt -0.094321 -0.390551
vt 0.084849 -0.386412
vt -0.097475 -0.390262
vt -0.097672 -0.387816
vt 0.100515 0.043504
vt -0.090265 0.039890
vt 0.100403 0.035957
vt -0.091192 0.040019
vt -0.089906 0.037746
vt 0.097476 0.036220
vt -0.081989 -0.386332
vt -0.081766 -0.384969
vt -0.099581 -0.384415
vt 0.081764 -0.385895
vt 0.085486 -0.383880
vt 0.081567 -0.383447
vt -0.065278 -0.947263
vt -0.077904 -0.945394
vt 0.068852 -0.948434
vt -0.077431 -0.948153
vt 0.068979 -0.945365
vt 0.062371 -0.944130
vt -0.091036 -0.944153
vt -0.075990 -0.945812
vt 0.073209 -0.944699
vt -0.075863 -0.942741
vt 0.073339 -0.942854
vt 0.068256 -0.941718
vt -0.072627 -0.937883
vt -0.058016 -0.939982
vt 0.052817 -0.938271
vt -0.057885 -0.938134
vt 0.052937 -0.939495
vt 0.065909 -0.941019
vt -0.059147 -0.947267
vt -0.078045 -0.944939
vt 0.085155 -0.946291
vt -0.077926 -0.946162
vt 0.084832 -0.947762
vt 0.083063 -0.947602
vt 0.068602 -0.933156
vt -0.060631 -0.934732
vt 0.069078 -0.935922
vt -0.063699 -0.934356
vt -0.060955 -0.936206
vt 0.072828 -0.936186
vt -0.037983 -1.377132
vt -0.034350 -1.377389
vt 0.069307 -1.373549
vt -0.034304 -1.376070
vt 0.069343 -1.374892
vt 0.065079 -1.374162
vt -0.046004 -1.378021
vt -0.050211 -1.376944
vt 0.046922 -1.377123
vt -0.050174 -1.378286
vt 0.046902 -1.378392
vt 0.045108 -1.378044
vt -0.070238 -1.376311
vt -0.073568 -1.375319
vt 0.032484 -1.378920
vt -0.073587 -1.376589
vt 0.032667 -1.377948
vt 0.028356 -1.377510
vt -0.079050 -1.370628
vt -0.067457 -1.372045
vt 0.064331 -1.371965
vt -0.067275 -1.371072
vt 0.064313 -1.371867
vt 0.076197 -1.372369
vt -0.060496 -1.378886
vt 0.072922 -1.378866
vt -0.062239 -1.378728
vt 0.072968 -1.377548
vt -0.062256 -1.378630
vt 0.069021 -1.377247
vt 0.004368 -1.925162
vt 0.001485 -1.924894
vt 0.060203 -1.923589
vt 0.001330 -1.926231
vt 0.060212 -1.924462
vt 0.061951 -1.925196
vt -0.019382 -1.926411
vt -0.020851 -1.925791
vt 0.016464 -1.926198
vt -0.020843 -1.926663
vt 0.016495 -1.927403
vt 0.015300 -1.926935
vt -0.064726 -1.930878
vt -0.065435 -1.930586
vt -0.002161 -1.931607
vt -0.065404 -1.931788
vt -0.002192 -1.932500
vt 0.008148 -1.933119
vt -0.079274 -1.930411
vt -0.082628 -1.930021
vt 0.056035 -1.931648
vt -0.082659 -1.930914
vt 0.056033 -1.931691
vt 0.050355 -1.931581
vt -0.037395 -1.930692
vt 0.071829 -1.929446
vt -0.025338 -1.931201
vt 0.071675 -1.930782
vt -0.025340 -1.931244
vt 0.063098 -1.930362
vt 0.024012 -2.364641
vt 0.016273 -2.364244
vt 0.064343 -2.363751
vt 0.016276 -2.364343
vt 0.064343 -2.363385
vt 0.064700 -2.363015
vt -0.001602 -2.362026
vt -0.002300 -2.362673
vt -0.007637 -2.362253
vt -0.002301 -2.362307
vt -0.007637 -2.362110
vt -0.007626 -2.362695
vt -0.075316 -2.364501
vt -0.075382 -2.364093
vt -0.014892 -2.365707
vt -0.075382 -2.363950
vt -0.014843 -2.365442
vt -0.027653 -2.364760
vt -0.088600 -2.362455
vt -0.078544 -2.363060
vt 0.040892 -2.363107
vt -0.078495 -2.362795
vt 0.040888 -2.363028
vt 0.042562 -2.363052
vt -0.008575 -2.363779
vt 0.078964 -2.362906
vt -0.014612 -2.363655
vt 0.078968 -2.363006
vt -0.014616 -2.363576
vt 0.076988 -2.362943
vt 0.051374 -2.918180
vt 0.049736 -2.918122
vt 0.061662 -2.917127
vt 0.049857 -2.918675
vt 0.061665 -2.918198
vt 0.059933 -2.918314
vt 0.017656 -2.917308
vt 0.020469 -2.916989
vt -0.035339 -2.917614
vt 0.020472 -2.918060
vt -0.035309 -2.918435
vt -0.032420 -2.918252
vt -0.072402 -2.915677
vt -0.075665 -2.916164
vt -0.058451 -2.916275
vt -0.075635 -2.916986
vt -0.058420 -2.917118
vt -0.055063 -2.917107
vt -0.083363 -2.917393
vt -0.094549 -2.916762
vt 0.037956 -2.917651
vt -0.094517 -2.917605
vt 0.037734 -2.917684
vt 0.029422 -2.917804
vt 0.000579 -2.915600
vt 0.087400 -2.914995
vt 0.002305 -2.915624
vt 0.087521 -2.915548
vt 0.002084 -2.915657
vt 0.095505 -2.915514
vt 0.066662 -3.352357
vt 0.075458 -3.352332
vt 0.065053 -3.352069
vt 0.029173 -3.352141
vt 0.026718 -3.352243
vt -0.047106 -3.352293
vt -0.089380 -3.352193
vt -0.085440 -3.352042
vt -0.067673 -3.352323
vt -0.109831 -3.351991
vt -0.106004 -3.351994
vt 0.031771 -3.352256
vt 0.003173 -3.352212
vt 0.113789 -3.351974
vt -0.006566 -3.352304
s 1
usemtl sugar_maple_bark.002
f 1/1/1 4/4/2 10/10/3
f 2/2/4 13/13/5 5/5/6
f 11/11/3 6/6/2 19/19/7
f 14/14/5 25/25/8 7/7/2
f 15/15/9 3/3/4 31/31/10
f 8/8/2 34/34/11 20/20/7
f 12/12/3 21/21/12 40/40/13
f 16/16/14 43/43/15 26/26/16
f 27/27/17 35/35/18 9/9/2
f 49/49/19 17/17/14 32/32/20
f 36/36/11 55/55/21 22/22/7
f 23/23/7 61/61/22 41/41/13
f 44/44/15 67/67/23 28/28/17
f 45/45/15 18/18/14 50/50/19
f 29/29/17 73/73/24 37/37/25
f 33/33/20 79/79/26 51/51/19
f 82/82/27 56/56/21 38/38/11
f 57/57/21 62/62/22 24/24/7
f 63/63/22 80/80/28 42/42/13
f 88/88/29 68/68/23 46/46/30
f 30/30/17 69/69/31 74/74/24
f 94/94/32 47/47/15 52/52/19
f 83/83/27 39/39/33 75/75/24
f 53/53/19 81/81/28 64/64/22
f 100/100/34 58/58/21 84/84/27
f 95/95/32 65/65/22 59/59/35
f 89/89/29 106/106/36 70/70/31
f 90/90/29 48/48/15 96/96/32
f 71/71/23 112/112/37 76/76/24
f 54/54/19 66/66/22 97/97/32
f 118/118/38 85/85/27 77/77/39
f 101/101/34 86/86/27 124/124/40
f 102/102/41 98/98/32 60/60/21
f 91/91/29 130/130/42 107/107/36
f 72/72/31 108/108/36 113/113/43
f 92/92/29 99/99/32 103/103/34
f 114/114/37 119/119/38 78/78/24
f 125/125/44 87/87/27 120/120/38
f 126/126/45 131/131/46 104/104/47
f 132/132/42 136/136/48 109/109/36
f 133/133/49 93/93/50 105/105/34
f 110/110/36 142/142/51 115/115/37
f 148/148/52 121/121/53 116/116/43
f 154/154/54 127/127/44 122/122/38
f 160/160/55 134/134/46 128/128/40
f 135/135/42 161/161/55 137/137/48
f 138/138/48 143/143/56 111/111/36
f 144/144/56 149/149/57 117/117/43
f 155/155/54 123/123/58 150/150/57
f 162/162/59 129/129/40 156/156/54
f 163/163/59 166/166/60 139/139/48
f 140/140/61 172/172/62 145/145/56
f 178/178/63 151/151/57 146/146/56
f 184/184/64 157/157/54 152/152/52
f 190/190/65 164/164/59 158/158/54
f 165/165/59 191/191/65 167/167/60
f 168/168/66 173/173/62 141/141/48
f 179/179/63 147/147/56 174/174/62
f 185/185/64 153/153/52 180/180/67
f 186/186/64 192/192/68 159/159/54
f 193/193/68 196/196/69 169/169/60
f 170/170/66 202/202/70 175/175/62
f 208/208/71 181/181/67 176/176/72
f 214/214/73 187/187/64 182/182/67
f 220/220/74 194/194/68 188/188/64
f 221/221/74 197/197/69 195/195/68
f 198/198/69 203/203/70 171/171/60
f 209/209/71 177/177/75 204/204/70
f 215/215/73 183/183/63 210/210/71
f 222/222/74 189/189/64 216/216/73
f 223/223/74 226/226/76 199/199/77
f 200/200/69 232/232/78 205/205/70
f 238/238/79 211/211/71 206/206/80
f 244/244/81 217/217/73 212/212/71
f 250/250/82 224/224/74 218/218/83
f 227/227/76 225/225/74 251/251/84
f 228/228/76 233/233/85 201/201/69
f 234/234/86 239/239/79 207/207/80
f 245/245/81 213/213/87 240/240/79
f 246/246/81 252/252/82 219/219/88
f 256/256/89 229/229/76 253/253/82
f 230/230/90 259/259/91 235/235/86
f 262/262/92 241/241/79 236/236/78
f 265/265/93 247/247/94 242/242/79
f 268/268/95 254/254/82 248/248/81
f 269/269/96 257/257/97 255/255/82
f 258/258/97 260/260/98 231/231/76
f 261/261/91 263/263/92 237/237/86
f 266/266/99 243/243/79 264/264/100
f 270/270/95 249/249/81 267/267/101
o Material2
v -0.185309 0.000000 0.060191
v -0.190578 -0.000000 -0.040528
v -0.194574 0.000000 0.010178
v -0.173595 -0.000000 -0.088472
v -0.163417 0.000000 0.106101
v -0.144781 -0.000000 -0.130387
v -0.130387 0.000000 0.144781
v -0.106101 -0.000000 -0.163417
v -0.088472 0.000000 0.173595
v -0.060191 -0.000000 -0.185309
v -0.040528 0.000000 0.190578
v -0.010178 -0.000000 -0.194574
v 0.010178 0.000000 0.194574
v 0.040528 -0.000000 -0.190578
v 0.060191 0.000000 0.185309
v 0.088472 -0.000000 -0.173595
v 0.106101 0.000000 0.163417
v 0.130387 -0.000000 -0.144781
v 0.144781 0.000000 0.130387
v 0.163417 -0.000000 -0.106101
v 0.173595 0.000000 0.088472
v 0.185309 -0.000000 -0.060191
v 0.190578 0.000000 0.040528
v 0.194574 -0.000000 -0.010178
vn -0.0000 1.0000 -0.0000
vt -2.224674 1.722599
vt -2.287924 0.513453
vt -2.335892 1.122189
vt -2.084037 -0.062127
vt -1.961847 2.273765
vt -1.738126 -0.565324
vt -1.565324 2.738126
vt -1.273765 -0.961847
vt -1.062127 3.084037
vt -0.722599 -1.224674
vt -0.486547 3.287924
vt -0.122189 -1.335892
vt 0.122189 3.335892
vt 0.486547 -1.287924
vt 0.722599 3.224674
vt 1.062127 -1.084037
vt 1.273765 2.961847
vt 1.565324 -0.738126
vt 1.738126 2.565324
vt 1.961847 -0.273765
vt 2.084037 2.062127
vt 2.224674 0.277401
vt 2.287924 1.486547
vt 2.335892 0.877811
s 0
usemtl Groundcover_Wood_Mix.002
f 271/271/102 272/272/102 273/273/102
f 272/272/102 271/271/102 274/274/102
f 274/274/102 271/271/102 275/275/102
f 274/274/102 275/275/102 276/276/102
f 276/276/102 275/275/102 277/277/102
f 276/276/102 277/277/102 278/278/102
f 278/278/102 277/277/102 279/279/102
f 278/278/102 279/279/102 280/280/102
f 280/280/102 279/279/102 281/281/102
f 280/280/102 281/281/102 282/282/102
f 282/282/102 281/281/102 283/283/102
f 282/282/102 283/283/102 284/284/102
f 284/284/102 283/283/102 285/285/102
f 284/284/102 285/285/102 286/286/102
f 286/286/102 285/285/102 287/287/102
f 286/286/102 287/287/102 288/288/102
f 288/288/102 287/287/102 289/289/102
f 288/288/102 289/289/102 290/290/102
f 290/290/102 289/289/102 291/291/102
f 290/290/102 291/291/102 292/292/102
f 292/292/102 291/291/102 293/293/102
f 292/292/102 293/293/102 294/294/102
