# Blender 3.5.1
# www.blender.org
mtllib gedung31.mtl
o Object_872_Object_405
v -400.260376 62.485878 -159.911575
v -400.260376 62.485878 -132.775818
v -400.260376 62.206718 -132.775818
v -400.260376 62.206718 -159.911575
v -400.722534 0.004397 -160.373718
v -400.722534 0.004401 -132.313690
v -400.722534 62.485878 -132.313690
v -400.722534 62.485878 -160.373718
v -355.958649 0.004401 -132.313690
v -355.958649 0.004397 -160.373718
v -355.958649 62.485878 -160.373718
v -355.958649 62.485878 -132.313690
v -355.958649 0.004397 -160.373718
v -400.722534 0.004397 -160.373718
v -400.722534 62.485878 -160.373718
v -355.958649 62.485878 -160.373718
v -400.722534 0.004401 -132.313690
v -355.958649 0.004401 -132.313690
v -355.958649 62.485878 -132.313690
v -400.722534 62.485878 -132.313690
v -356.420807 62.485878 -159.911591
v -356.420807 62.485878 -132.775833
v -355.958649 62.485878 -132.313690
v -355.958649 62.485878 -160.373718
v -356.420807 62.485878 -132.775833
v -400.260376 62.485878 -132.775818
v -400.722534 62.485878 -132.313690
v -355.958649 62.485878 -132.313690
v -400.260376 62.485878 -132.775818
v -400.260376 62.485878 -159.911575
v -400.722534 62.485878 -160.373718
v -400.722534 62.485878 -132.313690
v -400.260376 62.485878 -159.911575
v -356.420807 62.485878 -159.911591
v -355.958649 62.485878 -160.373718
v -400.722534 62.485878 -160.373718
v -356.420807 62.206718 -159.911591
v -400.260376 62.206718 -159.911575
v -400.260376 62.206718 -132.775818
v -356.420807 62.206718 -132.775833
v -356.420807 62.485878 -132.775833
v -356.420807 62.485878 -159.911591
v -356.420807 62.206718 -159.911591
v -356.420807 62.206718 -132.775833
v -356.420807 62.485878 -159.911591
v -400.260376 62.485878 -159.911575
v -400.260376 62.206718 -159.911575
v -356.420807 62.206718 -159.911591
v -400.260376 62.485878 -132.775818
v -356.420807 62.485878 -132.775833
v -356.420807 62.206718 -132.775833
v -400.260376 62.206718 -132.775818
vn 1.0000 -0.0000 -0.0000
vn -1.0000 -0.0000 -0.0000
vn -0.0000 -0.0000 -1.0000
vn -0.0000 -0.0000 1.0000
vn -0.0000 1.0000 -0.0000
vt 0.516636 0.878021
vt 0.545669 0.878021
vt 0.545669 0.878021
vt 0.516636 0.878021
vt 0.535108 0.215224
vt 0.442961 0.215224
vt 0.442961 0.005971
vt 0.535108 0.005971
vt 0.442961 0.215224
vt 0.535108 0.215224
vt 0.535108 0.005971
vt 0.442961 0.005971
vt 0.557938 0.215564
vt 0.407882 0.215564
vt 0.407882 0.006116
vt 0.557938 0.006116
vt 0.407882 0.215564
vt 0.557938 0.215564
vt 0.557938 0.006116
vt 0.407882 0.006116
vt 0.516636 0.824819
vt 0.545669 0.824819
vt 0.546163 0.824259
vt 0.516142 0.824259
vt 0.545669 0.824819
vt 0.545669 0.878021
vt 0.546163 0.878582
vt 0.546163 0.824259
vt 0.545669 0.878021
vt 0.516636 0.878021
vt 0.516142 0.878582
vt 0.546163 0.878582
vt 0.516636 0.878021
vt 0.516636 0.824819
vt 0.516142 0.824259
vt 0.516142 0.878582
vt 0.516636 0.824819
vt 0.516636 0.878021
vt 0.545669 0.878021
vt 0.545669 0.824819
vt 0.545669 0.824819
vt 0.516636 0.824819
vt 0.516636 0.824819
vt 0.545669 0.824819
vt 0.516636 0.824819
vt 0.516636 0.878021
vt 0.516636 0.878021
vt 0.516636 0.824819
vt 0.545669 0.878021
vt 0.545669 0.824819
vt 0.545669 0.824819
vt 0.545669 0.878021
s 0
usemtl fasades.001
f 1/1/1 2/2/1 3/3/1
f 1/1/1 3/3/1 4/4/1
f 5/5/2 6/6/2 7/7/2
f 5/5/2 7/7/2 8/8/2
f 9/9/1 10/10/1 11/11/1
f 9/9/1 11/11/1 12/12/1
f 13/13/3 14/14/3 15/15/3
f 13/13/3 15/15/3 16/16/3
f 17/17/4 18/18/4 19/19/4
f 17/17/4 19/19/4 20/20/4
f 21/21/5 22/22/5 23/23/5
f 21/21/5 23/23/5 24/24/5
f 25/25/5 26/26/5 27/27/5
f 25/25/5 27/27/5 28/28/5
f 29/29/5 30/30/5 31/31/5
f 29/29/5 31/31/5 32/32/5
f 33/33/5 34/34/5 35/35/5
f 33/33/5 35/35/5 36/36/5
f 37/37/5 38/38/5 39/39/5
f 37/37/5 39/39/5 40/40/5
f 41/41/2 42/42/2 43/43/2
f 41/41/2 43/43/2 44/44/2
f 45/45/4 46/46/4 47/47/4
f 45/45/4 47/47/4 48/48/4
f 49/49/3 50/50/3 51/51/3
f 49/49/3 51/51/3 52/52/3
