# Blender 3.5.1
# www.blender.org
mtllib gedung17.mtl
o Object_861_Object_400
v -165.088943 -0.301596 -43.275684
v -165.088943 33.484570 -43.275692
v -122.431519 33.484570 -43.275688
v -122.431519 -0.301596 -43.275681
v -122.431519 -0.301596 -43.275681
v -122.431519 33.484570 -43.275688
v -122.431519 33.484570 -32.423794
v -122.431519 -0.301594 -32.423786
v -122.431519 -0.301594 -32.423786
v -122.431519 33.484570 -32.423794
v -165.088943 33.484570 -32.423798
v -165.088943 -0.301594 -32.423790
v -165.088943 -0.301594 -32.423790
v -165.088943 33.484570 -32.423798
v -165.088943 33.484570 -43.275692
v -165.088943 -0.301596 -43.275684
v -122.587463 33.484570 -43.119743
v -164.932999 33.484570 -43.119751
v -164.932999 33.311695 -43.119751
v -122.587463 33.311695 -43.119743
v -122.431519 33.484570 -32.423794
v -122.431519 33.484570 -43.275688
v -122.587463 33.484570 -43.119743
v -122.587463 33.484570 -32.579735
v -122.431519 33.484570 -43.275688
v -165.088943 33.484570 -43.275692
v -164.932999 33.484570 -43.119751
v -122.587463 33.484570 -43.119743
v -165.088943 33.484570 -43.275692
v -165.088943 33.484570 -32.423798
v -164.932999 33.484570 -32.579742
v -164.932999 33.484570 -43.119751
v -165.088943 33.484570 -32.423798
v -122.431519 33.484570 -32.423794
v -122.587463 33.484570 -32.579735
v -164.932999 33.484570 -32.579742
v -122.587463 33.311695 -32.579735
v -122.587463 33.311695 -43.119743
v -164.932999 33.311695 -43.119751
v -164.932999 33.311695 -32.579742
v -122.587463 33.484570 -32.579735
v -122.587463 33.484570 -43.119743
v -122.587463 33.311695 -43.119743
v -122.587463 33.311695 -32.579735
v -164.932999 33.484570 -43.119751
v -164.932999 33.484570 -32.579742
v -164.932999 33.311695 -32.579742
v -164.932999 33.311695 -43.119751
v -164.932999 33.484570 -32.579742
v -122.587463 33.484570 -32.579735
v -122.587463 33.311695 -32.579735
v -164.932999 33.311695 -32.579742
vn -0.0000 -0.0000 -1.0000
vn 1.0000 -0.0000 -0.0000
vn -0.0000 -0.0000 1.0000
vn -1.0000 -0.0000 -0.0000
vn -0.0000 1.0000 -0.0000
vt 0.000222 0.658551
vt 0.000222 0.347328
vt 0.390819 0.347328
vt 0.390819 0.658551
vt 0.097560 0.657602
vt 0.097560 0.347590
vt 0.195676 0.347590
vt 0.195676 0.657602
vt 0.390819 0.658551
vt 0.390819 0.347328
vt 0.000222 0.347328
vt 0.000222 0.658551
vt 0.195676 0.657602
vt 0.195676 0.347590
vt 0.097560 0.347590
vt 0.097560 0.657602
vt 0.994261 0.279951
vt 0.994261 0.002173
vt 0.994261 0.002173
vt 0.994261 0.279951
vt 0.879265 0.280974
vt 0.995937 0.280974
vt 0.994261 0.279951
vt 0.880942 0.279951
vt 0.995937 0.280974
vt 0.995937 0.001150
vt 0.994261 0.002173
vt 0.994261 0.279951
vt 0.995937 0.001150
vt 0.879265 0.001150
vt 0.880942 0.002173
vt 0.994261 0.002173
vt 0.879265 0.001150
vt 0.879265 0.280974
vt 0.880942 0.279951
vt 0.880942 0.002173
vt 0.880942 0.279951
vt 0.994261 0.279951
vt 0.994261 0.002173
vt 0.880942 0.002173
vt 0.880942 0.279951
vt 0.994261 0.279951
vt 0.994261 0.279951
vt 0.880942 0.279951
vt 0.994261 0.002173
vt 0.880942 0.002173
vt 0.880942 0.002173
vt 0.994261 0.002173
vt 0.880942 0.002173
vt 0.880942 0.279951
vt 0.880942 0.279951
vt 0.880942 0.002173
s 0
usemtl fasades.001
f 1/1/1 2/2/1 3/3/1
f 1/1/1 3/3/1 4/4/1
f 5/5/2 6/6/2 7/7/2
f 5/5/2 7/7/2 8/8/2
f 9/9/3 10/10/3 11/11/3
f 9/9/3 11/11/3 12/12/3
f 13/13/4 14/14/4 15/15/4
f 13/13/4 15/15/4 16/16/4
f 17/17/3 18/18/3 19/19/3
f 17/17/3 19/19/3 20/20/3
f 21/21/5 22/22/5 23/23/5
f 21/21/5 23/23/5 24/24/5
f 25/25/5 26/26/5 27/27/5
f 25/25/5 27/27/5 28/28/5
f 29/29/5 30/30/5 31/31/5
f 29/29/5 31/31/5 32/32/5
f 33/33/5 34/34/5 35/35/5
f 33/33/5 35/35/5 36/36/5
f 37/37/5 38/38/5 39/39/5
f 37/37/5 39/39/5 40/40/5
f 41/41/4 42/42/4 43/43/4
f 41/41/4 43/43/4 44/44/4
f 45/45/2 46/46/2 47/47/2
f 45/45/2 47/47/2 48/48/2
f 49/49/1 50/50/1 51/51/1
f 49/49/1 51/51/1 52/52/1
