# Blender 3.5.1
# www.blender.org
mtllib gedung20.mtl
o Object_740_Object_344
v -231.376480 12.952723 -55.192047
v -231.376480 0.306263 -55.192047
v -244.011673 0.306263 -55.236023
v -244.011673 12.952723 -55.236023
v -231.376480 25.599182 -55.192055
v -231.376480 12.952723 -55.192047
v -244.011673 12.952723 -55.236023
v -244.011673 25.599182 -55.236031
v -231.376480 38.245644 -55.192055
v -231.376480 25.599182 -55.192055
v -244.011673 25.599182 -55.236031
v -244.011673 38.245644 -55.236031
v -231.376480 50.892101 -55.192055
v -231.376480 38.245644 -55.192055
v -244.011673 38.245644 -55.236031
v -244.011673 50.892101 -55.236031
v -244.011673 12.952723 -55.236023
v -244.011673 0.306263 -55.236023
v -256.658142 0.306263 -55.236027
v -256.658142 12.952723 -55.236027
v -244.011673 25.599182 -55.236031
v -244.011673 12.952723 -55.236023
v -256.658142 12.952723 -55.236027
v -256.657959 25.599182 -55.236794
v -244.011673 38.245644 -55.236031
v -244.011673 25.599182 -55.236031
v -256.657959 25.599182 -55.236794
v -256.658142 38.245644 -55.236034
v -244.011673 50.892101 -55.236031
v -244.011673 38.245644 -55.236031
v -256.658142 38.245644 -55.236034
v -256.658142 50.892101 -55.236034
v -256.658142 12.952723 -55.236027
v -256.658142 0.306263 -55.236027
v -256.657959 0.306265 -42.590324
v -256.657959 12.952724 -42.590324
v -256.657959 25.599182 -55.236794
v -256.658142 12.952723 -55.236027
v -256.657959 12.952724 -42.590324
v -256.657959 25.599182 -42.590332
v -256.658142 38.245644 -55.236034
v -256.657959 25.599182 -55.236794
v -256.657959 25.599182 -42.590332
v -256.657959 38.245644 -42.590332
v -256.658142 50.892101 -55.236034
v -256.658142 38.245644 -55.236034
v -256.657959 38.245644 -42.590332
v -256.657959 50.892101 -42.590332
v -256.657959 12.952724 -42.590324
v -256.657959 0.306265 -42.590324
v -256.658142 0.306267 -29.904188
v -256.658142 12.952726 -29.904192
v -256.657959 25.599182 -42.590332
v -256.657959 12.952724 -42.590324
v -256.658142 12.952726 -29.904192
v -256.657959 25.599186 -29.943871
v -256.657959 38.245644 -42.590332
v -256.657959 25.599182 -42.590332
v -256.657959 25.599186 -29.943871
v -256.658142 38.245644 -29.904196
v -256.657959 50.892101 -42.590332
v -256.657959 38.245644 -42.590332
v -256.658142 38.245644 -29.904196
v -256.658142 50.892101 -29.904196
v -231.376495 12.952726 -29.899132
v -231.376495 0.306267 -29.899128
v -231.376480 0.306265 -42.545586
v -231.376480 12.952724 -42.545586
v -231.376495 25.599186 -29.899132
v -231.376495 12.952726 -29.899132
v -231.376480 12.952724 -42.545586
v -231.376480 25.599182 -42.545593
v -231.376480 12.952724 -42.545586
v -231.376480 0.306265 -42.545586
v -231.376480 0.306263 -55.192047
v -231.376480 12.952723 -55.192047
v -231.376480 25.599182 -42.545593
v -231.376480 12.952724 -42.545586
v -231.376480 12.952723 -55.192047
v -231.376480 25.599182 -55.192055
v -231.376480 38.245644 -42.545593
v -231.376480 25.599182 -42.545593
v -231.376480 25.599182 -55.192055
v -231.376480 38.245644 -55.192055
v -231.376480 50.892101 -42.545593
v -231.376480 38.245644 -42.545593
v -231.376480 38.245644 -55.192055
v -231.376480 50.892101 -55.192055
v -256.658142 12.952726 -29.904192
v -256.658142 0.306267 -29.904188
v -244.011688 0.306267 -29.904182
v -244.011688 12.952726 -29.904186
v -256.658142 50.892101 -29.904196
v -256.658142 38.245644 -29.904196
v -244.011688 38.245644 -29.904190
v -244.011688 50.892101 -29.904190
v -244.011688 12.952726 -29.904186
v -244.011688 0.306267 -29.904182
v -231.376495 0.306267 -29.899128
v -231.376495 12.952726 -29.899132
v -244.011688 25.599186 -29.904186
v -244.011688 12.952726 -29.904186
v -231.376495 12.952726 -29.899132
v -231.376495 25.599186 -29.899132
v -244.011688 38.245644 -29.904190
v -231.376495 25.599186 -29.899132
v -231.365234 38.245644 -29.904184
v -244.011688 50.892101 -29.904190
v -244.011688 38.245644 -29.904190
v -231.365234 38.245644 -29.904184
v -231.376495 50.892101 -29.899136
v -231.365234 38.245644 -29.904184
v -231.376495 25.599186 -29.899132
v -231.376480 25.599182 -42.545593
v -231.376480 38.245644 -42.545593
v -231.376495 50.892101 -29.899136
v -231.365234 38.245644 -29.904184
v -231.376480 38.245644 -42.545593
v -231.376480 50.892101 -42.545593
v -256.657959 25.599186 -29.943871
v -256.658142 12.952726 -29.904192
v -244.011688 12.952726 -29.904186
v -244.011688 25.599186 -29.904186
v -256.658142 38.245644 -29.904196
v -256.657959 25.599186 -29.943871
v -244.011688 25.599186 -29.904186
v -244.011688 38.245644 -29.904190
v -244.011688 25.599186 -29.904186
vn 0.0035 -0.0000 -1.0000
vn -0.0000 -0.0000 -1.0000
vn 0.0001 -0.0001 -1.0000
vn 0.0001 -0.0000 -1.0000
vn -0.0000 0.0001 -1.0000
vn -1.0000 -0.0000 -0.0000
vn 1.0000 -0.0000 -0.0000
vn -0.0000 -0.0000 1.0000
vn -0.0004 -0.0000 1.0000
vn -0.0002 0.0002 1.0000
vn -0.0004 -0.0004 1.0000
vn 1.0000 -0.0004 -0.0004
vn 1.0000 -0.0009 -0.0000
vn 1.0000 -0.0000 -0.0009
vn 1.0000 0.0004 -0.0004
vn 1.0000 0.0007 -0.0007
vn 1.0000 0.0003 -0.0003
vn -0.0016 0.0016 1.0000
vn -0.0015 0.0016 1.0000
vn -0.0016 0.0015 1.0000
vn -0.0016 -0.0016 1.0000
vt 0.000200 0.999800
vt 0.499800 0.999800
vt 0.499800 0.500200
vt 0.000200 0.500200
vt 0.000200 0.999800
vt 0.499800 0.999800
vt 0.499800 0.500200
vt 0.000200 0.500200
vt 0.000200 0.999800
vt 0.499800 0.999800
vt 0.499800 0.500200
vt 0.000200 0.500200
vt 0.000200 0.999800
vt 0.499800 0.999800
vt 0.499800 0.500200
vt 0.000200 0.500200
vt 0.000200 0.999800
vt 0.499800 0.999800
vt 0.499800 0.500200
vt 0.000200 0.500200
vt 0.000200 0.999800
vt 0.499800 0.999800
vt 0.499800 0.500200
vt 0.000200 0.500200
vt 0.000200 0.999800
vt 0.499800 0.999800
vt 0.499800 0.500200
vt 0.000200 0.500200
vt 0.000200 0.999800
vt 0.499800 0.999800
vt 0.499800 0.500200
vt 0.000200 0.500200
vt 0.000200 0.999800
vt 0.499800 0.999800
vt 0.499800 0.500200
vt 0.000200 0.500200
vt 0.000200 0.999800
vt 0.499800 0.999800
vt 0.499800 0.500200
vt 0.000200 0.500200
vt 0.000200 0.999800
vt 0.499800 0.999800
vt 0.499800 0.500200
vt 0.000200 0.500200
vt 0.000200 0.999800
vt 0.499800 0.999800
vt 0.499800 0.500200
vt 0.000200 0.500200
vt 0.000200 0.999800
vt 0.499800 0.999800
vt 0.499800 0.500200
vt 0.000200 0.500200
vt 0.000200 0.999800
vt 0.499800 0.999800
vt 0.499800 0.500200
vt 0.000200 0.500200
vt 0.000200 0.999800
vt 0.499800 0.999800
vt 0.499800 0.500200
vt 0.000200 0.500200
vt 0.000200 0.999800
vt 0.499800 0.999800
vt 0.499800 0.500200
vt 0.000200 0.500200
vt 0.000200 0.999800
vt 0.499800 0.999800
vt 0.499800 0.500200
vt 0.000200 0.500200
vt 0.000200 0.999800
vt 0.499800 0.999800
vt 0.499800 0.500200
vt 0.000200 0.500200
vt 0.000200 0.999800
vt 0.499800 0.999800
vt 0.499800 0.500200
vt 0.000200 0.500200
vt 0.000200 0.999800
vt 0.499800 0.999800
vt 0.499800 0.500200
vt 0.000200 0.500200
vt 0.000200 0.999800
vt 0.499800 0.999800
vt 0.499800 0.500200
vt 0.000200 0.500200
vt 0.000200 0.999800
vt 0.499800 0.999800
vt 0.499800 0.500200
vt 0.000200 0.500200
vt 0.000200 0.999800
vt 0.499800 0.999800
vt 0.499800 0.500200
vt 0.000200 0.500200
vt 0.000200 0.999800
vt 0.499800 0.999800
vt 0.499800 0.500200
vt 0.000200 0.500200
vt 0.000200 0.999800
vt 0.499800 0.999800
vt 0.499800 0.500200
vt 0.000200 0.500200
vt 0.000200 0.999800
vt 0.499800 0.999800
vt 0.499800 0.500200
vt 0.000200 0.500200
vt 0.000200 0.999800
vt 0.499800 0.500200
vt 0.000200 0.500200
vt 0.000200 0.999800
vt 0.499800 0.999800
vt 0.499800 0.500200
vt 0.000200 0.500200
vt 0.000200 0.999800
vt 0.499800 0.999800
vt 0.499800 0.500200
vt 0.000200 0.500200
vt 0.000200 0.999800
vt 0.499800 0.999800
vt 0.499800 0.500200
vt 0.000200 0.500200
vt 0.000200 0.999800
vt 0.499800 0.999800
vt 0.499800 0.500200
vt 0.000200 0.500200
vt 0.000200 0.999800
vt 0.499800 0.999800
vt 0.499800 0.500200
vt 0.000200 0.500200
vt 0.499800 0.999800
s 0
usemtl fasades2.001
f 1/1/1 2/2/1 3/3/1
f 1/1/1 3/3/1 4/4/1
f 5/5/1 6/6/1 7/7/1
f 5/5/1 7/7/1 8/8/1
f 9/9/1 10/10/1 11/11/1
f 9/9/1 11/11/1 12/12/1
f 13/13/1 14/14/1 15/15/1
f 13/13/1 15/15/1 16/16/1
f 17/17/2 18/18/2 19/19/2
f 17/17/2 19/19/2 20/20/2
f 21/21/2 22/22/2 23/23/2
f 21/21/3 23/23/3 24/24/3
f 25/25/4 26/26/4 27/27/4
f 25/25/5 27/27/5 28/28/5
f 29/29/2 30/30/2 31/31/2
f 29/29/2 31/31/2 32/32/2
f 33/33/6 34/34/6 35/35/6
f 33/33/6 35/35/6 36/36/6
f 37/37/6 38/38/6 39/39/6
f 37/37/6 39/39/6 40/40/6
f 41/41/6 42/42/6 43/43/6
f 41/41/6 43/43/6 44/44/6
f 45/45/6 46/46/6 47/47/6
f 45/45/6 47/47/6 48/48/6
f 49/49/6 50/50/6 51/51/6
f 49/49/6 51/51/6 52/52/6
f 53/53/6 54/54/6 55/55/6
f 53/53/6 55/55/6 56/56/6
f 57/57/6 58/58/6 59/59/6
f 57/57/6 59/59/6 60/60/6
f 61/61/6 62/62/6 63/63/6
f 61/61/6 63/63/6 64/64/6
f 65/65/7 66/66/7 67/67/7
f 65/65/7 67/67/7 68/68/7
f 69/69/7 70/70/7 71/71/7
f 69/69/7 71/71/7 72/72/7
f 73/73/7 74/74/7 75/75/7
f 73/73/7 75/75/7 76/76/7
f 77/77/7 78/78/7 79/79/7
f 77/77/7 79/79/7 80/80/7
f 81/81/7 82/82/7 83/83/7
f 81/81/7 83/83/7 84/84/7
f 85/85/7 86/86/7 87/87/7
f 85/85/7 87/87/7 88/88/7
f 89/89/8 90/90/8 91/91/8
f 89/89/8 91/91/8 92/92/8
f 93/93/8 94/94/8 95/95/8
f 93/93/8 95/95/8 96/96/8
f 97/97/9 98/98/9 99/99/9
f 97/97/9 99/99/9 100/100/9
f 101/101/9 102/102/9 103/103/9
f 101/101/9 103/103/9 104/104/9
f 105/105/10 106/106/10 107/107/10
f 108/108/8 109/109/8 110/110/8
f 108/108/11 110/110/11 111/111/11
s 1
f 112/112/12 113/113/13 114/114/12
f 112/112/12 114/114/12 115/115/14
f 116/116/15 117/117/16 118/118/15
f 116/116/15 118/118/15 119/119/17
f 120/120/18 121/121/19 122/122/18
f 120/120/18 122/122/18 123/123/20
f 124/124/21 125/125/21 126/126/21
f 124/124/21 126/126/21 127/127/21
f 105/105/9 128/128/9 106/106/9
