# Blender 3.5.1
# www.blender.org
mtllib gedung32.mtl
o Object_843_Object_392
v -287.123840 -0.030429 -178.441116
v -287.123840 86.816368 -178.441116
v -276.839752 86.816368 -178.441116
v -276.839752 -0.030429 -178.441116
v -276.839752 -0.030429 -178.441116
v -276.839752 86.816368 -178.441116
v -276.839752 86.816368 -156.547943
v -276.839752 -0.030427 -156.547943
v -323.011993 86.816368 -156.547943
v -323.011993 -0.030427 -156.547943
v -323.011993 -0.030427 -155.907791
v -323.011993 86.816368 -155.907791
v -323.011993 -0.030427 -156.547943
v -323.011993 86.816368 -156.547943
v -323.011993 86.816368 -178.441116
v -323.011993 -0.030429 -178.441116
v -317.058014 86.816368 -156.547943
v -317.058014 86.816368 -178.441116
v -323.011993 86.816368 -178.441116
v -323.011993 86.816368 -156.547943
v -299.902893 86.816368 -156.547943
v -299.902863 86.816368 -178.441116
v -307.522858 86.816368 -178.441116
v -307.522858 86.816368 -156.547943
v -299.902893 -0.030427 -156.547943
v -299.902893 86.816368 -156.547943
v -307.522858 86.816368 -156.547943
v -307.522858 -0.030427 -156.547943
v -317.058014 -0.030429 -178.441116
v -317.058014 86.816368 -178.441116
v -307.522858 86.816368 -178.441116
v -307.522858 -0.030429 -178.441116
v -299.902893 86.816368 -156.547943
v -299.902893 -0.030427 -156.547943
v -299.902893 -0.030427 -155.907791
v -299.902893 86.816368 -155.907791
v -287.123840 86.816368 -156.547943
v -287.123840 86.816368 -178.441116
v -299.902863 86.816368 -178.441116
v -299.902893 86.816368 -156.547943
v -307.522858 -0.030429 -178.441116
v -307.522858 86.816368 -178.441116
v -299.902863 86.816368 -178.441116
v -299.902863 -0.030429 -178.441116
v -276.839752 86.816368 -156.547943
v -276.839752 86.816368 -178.441116
v -287.123840 86.816368 -178.441116
v -287.123840 86.816368 -156.547943
v -276.839752 -0.030427 -156.547943
v -276.839752 86.816368 -156.547943
v -287.123840 86.816368 -156.547943
v -287.123840 -0.030427 -156.547943
v -287.123840 86.816368 -178.441116
v -287.123840 -0.030429 -178.441116
v -287.123840 -0.030431 -178.849426
v -287.123840 86.816368 -178.849426
v -307.522858 86.816368 -156.547943
v -307.522858 86.816368 -178.441116
v -317.058014 86.816368 -178.441116
v -317.058014 86.816368 -156.547943
v -307.522858 -0.030427 -156.547943
v -307.522858 86.816368 -156.547943
v -317.058014 86.816368 -156.547943
v -317.058014 -0.030427 -156.547943
v -317.058014 -0.030427 -155.907791
v -317.058014 86.816368 -155.907791
v -323.011993 86.816368 -155.907791
v -323.011993 -0.030427 -155.907791
v -287.123840 -0.030427 -155.907791
v -287.123840 86.816368 -155.907791
v -299.902893 86.816368 -155.907791
v -299.902893 -0.030427 -155.907791
v -287.123840 -0.030427 -156.547943
v -287.123840 86.816368 -156.547943
v -287.123840 86.816368 -155.907791
v -287.123840 -0.030427 -155.907791
v -287.123840 86.816368 -156.547943
v -299.902893 86.816368 -156.547943
v -299.902893 86.816368 -155.907791
v -287.123840 86.816368 -155.907791
v -317.058014 -0.030427 -156.547943
v -317.058014 86.816368 -156.547943
v -317.058014 86.816368 -155.907791
v -317.058014 -0.030427 -155.907791
v -317.058014 86.816368 -156.547943
v -323.011993 86.816368 -156.547943
v -323.011993 86.816368 -155.907791
v -317.058014 86.816368 -155.907791
v -299.902863 -0.030431 -178.849442
v -299.902863 86.816368 -178.849442
v -287.123840 86.816368 -178.849426
v -287.123840 -0.030431 -178.849426
v -323.011993 -0.030431 -178.849442
v -323.011993 86.816368 -178.849442
v -317.058014 86.816368 -178.849442
v -317.058014 -0.030431 -178.849442
v -317.058014 86.816368 -178.441116
v -317.058014 -0.030429 -178.441116
v -317.058014 -0.030431 -178.849442
v -317.058014 86.816368 -178.849442
v -323.011993 86.816368 -178.441116
v -317.058014 86.816368 -178.441116
v -317.058014 86.816368 -178.849442
v -323.011993 86.816368 -178.849442
v -299.902863 -0.030429 -178.441116
v -299.902863 86.816368 -178.441116
v -299.902863 86.816368 -178.849442
v -299.902863 -0.030431 -178.849442
v -323.011993 -0.030429 -178.441116
v -323.011993 86.816368 -178.441116
v -323.011993 86.816368 -178.849442
v -323.011993 -0.030431 -178.849442
v -299.902863 86.816368 -178.441116
v -287.123840 86.816368 -178.441116
v -287.123840 86.816368 -178.849426
v -299.902863 86.816368 -178.849442
vn -0.0000 -0.0000 -1.0000
vn 1.0000 -0.0000 -0.0000
vn -1.0000 -0.0000 -0.0000
vn -0.0000 1.0000 -0.0000
vn -0.0000 -0.0000 1.0000
vt 0.157901 0.346322
vt 0.157901 0.000766
vt 0.199266 0.000421
vt 0.199266 0.346253
vt 0.111561 0.345041
vt 0.112530 0.009185
vt 0.199300 0.007441
vt 0.198718 0.345041
vt 0.199300 0.007441
vt 0.198718 0.345041
vt 0.198718 0.345041
vt 0.199300 0.007441
vt 0.198718 0.345041
vt 0.199300 0.007441
vt 0.112530 0.009185
vt 0.111561 0.345041
vt 0.807038 0.941436
vt 0.807038 0.869707
vt 0.783023 0.869707
vt 0.783023 0.941436
vt 0.876231 0.941436
vt 0.876231 0.869707
vt 0.845497 0.869707
vt 0.845497 0.941436
vt 0.106500 0.346407
vt 0.106500 0.001195
vt 0.075850 0.001451
vt 0.075850 0.346458
vt 0.037497 0.346521
vt 0.037497 0.001771
vt 0.075850 0.001451
vt 0.075850 0.346458
vt 0.106500 0.001195
vt 0.106500 0.346407
vt 0.106500 0.346407
vt 0.106500 0.001195
vt 0.927774 0.941435
vt 0.927774 0.869707
vt 0.876231 0.869707
vt 0.876231 0.941436
vt 0.075850 0.346458
vt 0.075850 0.001451
vt 0.106500 0.001195
vt 0.106500 0.346407
vt 0.969254 0.941435
vt 0.969254 0.869707
vt 0.927774 0.869707
vt 0.927774 0.941435
vt 0.199266 0.346253
vt 0.199266 0.000421
vt 0.157901 0.000766
vt 0.157901 0.346322
vt 0.157901 0.000766
vt 0.157901 0.346322
vt 0.157901 0.346322
vt 0.157901 0.000766
vt 0.845497 0.941436
vt 0.845497 0.869707
vt 0.807038 0.869707
vt 0.807038 0.941436
vt 0.075850 0.346458
vt 0.075850 0.001451
vt 0.037497 0.001771
vt 0.037497 0.346521
vt 0.037497 0.346521
vt 0.037497 0.001771
vt 0.013548 0.001971
vt 0.013548 0.346561
vt 0.157901 0.346322
vt 0.157901 0.000766
vt 0.106500 0.001195
vt 0.106500 0.346407
vt 0.157901 0.346322
vt 0.157901 0.000766
vt 0.157901 0.000766
vt 0.157901 0.346322
vt 0.927774 0.941435
vt 0.876231 0.941436
vt 0.876231 0.943533
vt 0.927774 0.943533
vt 0.037497 0.346521
vt 0.037497 0.001771
vt 0.037497 0.001771
vt 0.037497 0.346521
vt 0.807038 0.941436
vt 0.783023 0.941436
vt 0.783023 0.943533
vt 0.807038 0.943533
vt 0.106500 0.346407
vt 0.106500 0.001195
vt 0.157901 0.000766
vt 0.157901 0.346322
vt 0.013548 0.346561
vt 0.013548 0.001971
vt 0.037497 0.001771
vt 0.037497 0.346521
vt 0.037497 0.001771
vt 0.037497 0.346521
vt 0.037497 0.346521
vt 0.037497 0.001771
vt 0.783023 0.869707
vt 0.807038 0.869707
vt 0.807038 0.868369
vt 0.783023 0.868369
vt 0.106500 0.346407
vt 0.106500 0.001195
vt 0.106500 0.001195
vt 0.106500 0.346407
vt 0.111561 0.345041
vt 0.112530 0.009185
vt 0.112530 0.009185
vt 0.111561 0.345041
vt 0.876231 0.869707
vt 0.927774 0.869707
vt 0.927774 0.868369
vt 0.876231 0.868369
s 0
usemtl fasades.001
f 1/1/1 2/2/1 3/3/1
f 1/1/1 3/3/1 4/4/1
f 5/5/2 6/6/2 7/7/2
f 5/5/2 7/7/2 8/8/2
f 9/9/3 10/10/3 11/11/3
f 9/9/3 11/11/3 12/12/3
f 13/13/3 14/14/3 15/15/3
f 13/13/3 15/15/3 16/16/3
f 17/17/4 18/18/4 19/19/4
f 17/17/4 19/19/4 20/20/4
f 21/21/4 22/22/4 23/23/4
f 21/21/4 23/23/4 24/24/4
f 25/25/5 26/26/5 27/27/5
f 25/25/5 27/27/5 28/28/5
f 29/29/1 30/30/1 31/31/1
f 29/29/1 31/31/1 32/32/1
f 33/33/3 34/34/3 35/35/3
f 33/33/3 35/35/3 36/36/3
f 37/37/4 38/38/4 39/39/4
f 37/37/4 39/39/4 40/40/4
f 41/41/1 42/42/1 43/43/1
f 41/41/1 43/43/1 44/44/1
f 45/45/4 46/46/4 47/47/4
f 45/45/4 47/47/4 48/48/4
f 49/49/5 50/50/5 51/51/5
f 49/49/5 51/51/5 52/52/5
f 53/53/2 54/54/2 55/55/2
f 53/53/2 55/55/2 56/56/2
f 57/57/4 58/58/4 59/59/4
f 57/57/4 59/59/4 60/60/4
f 61/61/5 62/62/5 63/63/5
f 61/61/5 63/63/5 64/64/5
f 65/65/5 66/66/5 67/67/5
f 65/65/5 67/67/5 68/68/5
f 69/69/5 70/70/5 71/71/5
f 69/69/5 71/71/5 72/72/5
f 73/73/2 74/74/2 75/75/2
f 73/73/2 75/75/2 76/76/2
f 77/77/4 78/78/4 79/79/4
f 77/77/4 79/79/4 80/80/4
f 81/81/2 82/82/2 83/83/2
f 81/81/2 83/83/2 84/84/2
f 85/85/4 86/86/4 87/87/4
f 85/85/4 87/87/4 88/88/4
f 89/89/1 90/90/1 91/91/1
f 89/89/1 91/91/1 92/92/1
f 93/93/1 94/94/1 95/95/1
f 93/93/1 95/95/1 96/96/1
f 97/97/2 98/98/2 99/99/2
f 97/97/2 99/99/2 100/100/2
f 101/101/4 102/102/4 103/103/4
f 101/101/4 103/103/4 104/104/4
f 105/105/3 106/106/3 107/107/3
f 105/105/3 107/107/3 108/108/3
f 109/109/3 110/110/3 111/111/3
f 109/109/3 111/111/3 112/112/3
f 113/113/4 114/114/4 115/115/4
f 113/113/4 115/115/4 116/116/4
