# Blender 3.5.1
# www.blender.org
mtllib gedung7.mtl
o Object_223_Object_104
v -31.316536 -0.217785 -345.136414
v -31.316536 21.072344 -345.136414
v -31.322712 21.072344 -345.215607
v -31.322712 -0.217785 -345.215607
v -36.506626 21.072348 -326.504272
v -36.716202 21.072348 -326.504272
v -36.716202 21.072348 -325.667542
v -36.506626 21.072348 -325.667542
v -36.506626 21.072348 -331.934082
v -36.716202 21.072348 -331.934082
v -36.716202 21.072348 -326.504272
v -36.506626 21.072348 -326.504272
v -30.983894 -0.217783 -331.934082
v -30.983894 21.072348 -331.934082
v -30.983894 21.072348 -326.504272
v -30.983894 -0.217783 -326.504272
v -30.983894 -0.217785 -338.844971
v -30.983894 21.072348 -338.844971
v -30.843746 21.072348 -338.844971
v -30.843746 -0.217785 -338.844971
v -36.506626 21.072348 -332.755493
v -36.716202 21.072348 -332.755493
v -36.716202 21.072348 -331.934082
v -36.506626 21.072348 -331.934082
v -36.716202 -0.217783 -326.504272
v -36.716202 21.072348 -326.504272
v -36.716202 21.072348 -331.934082
v -36.716202 -0.217783 -331.934082
v -36.506626 21.072348 -337.972839
v -36.716202 21.072348 -337.972839
v -36.716202 21.072348 -332.755493
v -36.506626 21.072348 -332.755493
v -30.983894 -0.217785 -337.972839
v -30.983894 21.072348 -337.972839
v -30.983894 21.072348 -332.755493
v -30.983894 -0.217783 -332.755493
v -36.716202 21.072348 -332.755493
v -36.716202 -0.217783 -332.755493
v -36.856350 -0.217783 -332.755493
v -36.856350 21.072348 -332.755493
v -36.716202 -0.217783 -331.934082
v -36.716202 21.072348 -331.934082
v -36.856350 21.072348 -331.934082
v -36.856350 -0.217783 -331.934082
v -36.506626 21.072348 -338.844971
v -36.716202 21.072348 -338.844971
v -36.716202 21.072348 -337.972839
v -36.506626 21.072348 -337.972839
v -36.716202 -0.217783 -332.755493
v -36.716202 21.072348 -332.755493
v -36.716202 21.072348 -337.972839
v -36.716202 -0.217785 -337.972839
v -36.506626 21.072344 -344.332764
v -36.716202 21.072344 -344.332764
v -36.716202 21.072348 -338.844971
v -36.506626 21.072348 -338.844971
v -30.983894 -0.217785 -344.332764
v -30.983894 21.072344 -344.332764
v -30.983894 21.072348 -338.844971
v -30.983894 -0.217785 -338.844971
v -30.983894 -0.217783 -332.755493
v -30.983894 21.072348 -332.755493
v -30.843746 21.072348 -332.755493
v -30.843746 -0.217783 -332.755493
v -36.716202 21.072344 -345.136414
v -36.506626 21.072344 -345.136414
v -36.504883 21.072344 -345.215607
v -36.869934 21.072344 -345.215607
v -36.716202 21.072344 -344.332764
v -36.506626 21.072344 -344.332764
v -36.716202 -0.217785 -338.844971
v -36.716202 21.072348 -338.844971
v -36.716202 21.072344 -344.332764
v -36.716202 -0.217785 -344.332764
v -31.316536 21.072344 -345.136414
v -36.506626 21.072344 -345.136414
v -36.506626 21.072344 -344.332764
v -31.316536 21.072344 -344.332764
v -31.316536 21.072344 -344.332764
v -36.506626 21.072344 -344.332764
v -36.506626 21.072348 -338.844971
v -31.316536 21.072348 -338.844971
v -31.316536 21.072348 -338.844971
v -36.506626 21.072348 -338.844971
v -36.506626 21.072348 -337.972839
v -31.316536 21.072348 -337.972839
v -31.316536 21.072348 -337.972839
v -36.506626 21.072348 -337.972839
v -36.506626 21.072348 -332.755493
v -31.316536 21.072348 -332.755493
v -31.316536 21.072348 -332.755493
v -36.506626 21.072348 -332.755493
v -36.506626 21.072348 -331.934082
v -31.316536 21.072348 -331.934082
v -31.316536 21.072348 -331.934082
v -36.506626 21.072348 -331.934082
v -36.506626 21.072348 -326.504272
v -31.316536 21.072348 -326.504272
v -31.316536 21.072348 -326.504272
v -36.506626 21.072348 -326.504272
v -36.506626 21.072348 -325.667542
v -31.316536 21.072348 -325.667542
v -31.316536 -0.217783 -325.667542
v -31.316536 21.072348 -325.667542
v -36.506626 21.072348 -325.667542
v -36.506626 -0.217783 -325.667542
v -36.716202 21.072348 -325.667542
v -36.716202 21.072348 -326.504272
v -36.823097 21.072348 -326.504272
v -36.823097 21.072348 -325.596558
v -30.983894 21.072348 -326.504272
v -31.316536 21.072348 -326.504272
v -31.316536 21.072348 -325.667542
v -30.983894 21.072348 -325.667542
v -30.983894 21.072348 -331.934082
v -31.316536 21.072348 -331.934082
v -31.316536 21.072348 -326.504272
v -30.983894 21.072348 -326.504272
v -30.983894 21.072348 -332.755493
v -31.316536 21.072348 -332.755493
v -31.316536 21.072348 -331.934082
v -30.983894 21.072348 -331.934082
v -30.983894 21.072348 -337.972839
v -31.316536 21.072348 -337.972839
v -31.316536 21.072348 -332.755493
v -30.983894 21.072348 -332.755493
v -30.983894 21.072348 -338.844971
v -31.316536 21.072348 -338.844971
v -31.316536 21.072348 -337.972839
v -30.983894 21.072348 -337.972839
v -30.983894 21.072344 -344.332764
v -31.316536 21.072344 -344.332764
v -31.316536 21.072348 -338.844971
v -30.983894 21.072348 -338.844971
v -30.983894 21.072344 -345.136414
v -31.316536 21.072344 -345.136414
v -31.316536 21.072344 -344.332764
v -30.983894 21.072344 -344.332764
v -36.506626 -0.217785 -345.136414
v -36.506626 21.072344 -345.136414
v -31.316536 21.072344 -345.136414
v -31.316536 -0.217785 -345.136414
v -30.843746 -0.217783 -332.755493
v -30.843746 21.072348 -332.755493
v -30.843746 21.072348 -331.934082
v -30.843746 -0.217783 -331.934082
v -36.856350 -0.217783 -331.934082
v -36.856350 21.072348 -331.934082
v -36.856350 21.072348 -332.755493
v -36.856350 -0.217783 -332.755493
v -30.843746 -0.217785 -338.844971
v -30.843746 21.072348 -338.844971
v -30.843746 21.072348 -337.972839
v -30.843746 -0.217785 -337.972839
v -36.856350 -0.217785 -337.972839
v -36.856350 21.072348 -337.972839
v -36.856350 21.072348 -338.844971
v -36.856350 -0.217785 -338.844971
v -36.716202 21.072348 -331.934082
v -36.716202 21.072348 -332.755493
v -36.856350 21.072348 -332.755493
v -36.856350 21.072348 -331.934082
v -36.716202 -0.217785 -337.972839
v -36.716202 21.072348 -337.972839
v -36.856350 21.072348 -337.972839
v -36.856350 -0.217785 -337.972839
v -36.716202 21.072348 -338.844971
v -36.716202 -0.217785 -338.844971
v -36.856350 -0.217785 -338.844971
v -36.856350 21.072348 -338.844971
v -36.716202 21.072348 -337.972839
v -36.716202 21.072348 -338.844971
v -36.856350 21.072348 -338.844971
v -36.856350 21.072348 -337.972839
v -30.983894 21.072348 -332.755493
v -30.983894 21.072348 -331.934082
v -30.843746 21.072348 -331.934082
v -30.843746 21.072348 -332.755493
v -30.983894 21.072348 -331.934082
v -30.983894 -0.217783 -331.934082
v -30.843746 -0.217783 -331.934082
v -30.843746 21.072348 -331.934082
v -30.983894 21.072348 -338.844971
v -30.983894 21.072348 -337.972839
v -30.843746 21.072348 -337.972839
v -30.843746 21.072348 -338.844971
v -30.983894 21.072348 -337.972839
v -30.983894 -0.217785 -337.972839
v -30.843746 -0.217785 -337.972839
v -30.843746 21.072348 -337.972839
v -30.875458 -0.217783 -326.504272
v -30.875458 21.072348 -326.504272
v -30.875458 21.072348 -325.596558
v -30.875458 -0.217783 -325.596558
v -36.519276 -0.217783 -325.596558
v -36.519276 21.072348 -325.596558
v -36.823097 21.072348 -325.596558
v -36.823097 -0.217783 -325.596558
v -36.823097 -0.217783 -325.596558
v -36.823097 21.072348 -325.596558
v -36.823097 21.072348 -326.504272
v -36.823097 -0.217783 -326.504272
v -30.875458 -0.217783 -325.596558
v -30.875458 21.072348 -325.596558
v -31.306971 21.072348 -325.596558
v -31.306971 -0.217783 -325.596558
v -36.506626 21.072348 -325.667542
v -36.716202 21.072348 -325.667542
v -36.823097 21.072348 -325.596558
v -36.519276 21.072348 -325.596558
v -30.983894 -0.217783 -326.504272
v -30.983894 21.072348 -326.504272
v -30.875458 21.072348 -326.504272
v -30.875458 -0.217783 -326.504272
v -30.983894 21.072348 -326.504272
v -30.983894 21.072348 -325.667542
v -30.875458 21.072348 -325.596558
v -30.875458 21.072348 -326.504272
v -36.506626 -0.217783 -325.667542
v -36.506626 21.072348 -325.667542
v -36.519276 21.072348 -325.596558
v -36.519276 -0.217783 -325.596558
v -36.716202 21.072348 -326.504272
v -36.716202 -0.217783 -326.504272
v -36.823097 -0.217783 -326.504272
v -36.823097 21.072348 -326.504272
v -30.983894 21.072348 -325.667542
v -31.316536 21.072348 -325.667542
v -31.306971 21.072348 -325.596558
v -30.875458 21.072348 -325.596558
v -31.316536 21.072348 -325.667542
v -31.316536 -0.217783 -325.667542
v -31.306971 -0.217783 -325.596558
v -31.306971 21.072348 -325.596558
v -36.869934 -0.217785 -344.303833
v -36.869934 21.072344 -344.303833
v -36.869934 21.072344 -345.215607
v -36.869934 -0.217785 -345.215607
v -31.322712 -0.217785 -345.215607
v -31.322712 21.072344 -345.215607
v -30.827948 21.072344 -345.215607
v -30.827948 -0.217785 -345.215607
v -30.827948 -0.217785 -345.215607
v -30.827948 21.072344 -345.215607
v -30.827948 21.072344 -344.303833
v -30.827948 -0.217785 -344.303833
v -36.869934 -0.217785 -345.215607
v -36.869934 21.072344 -345.215607
v -36.504883 21.072344 -345.215607
v -36.504883 -0.217785 -345.215607
v -30.983894 21.072344 -345.136414
v -30.983894 21.072344 -344.332764
v -30.827948 21.072344 -344.303833
v -30.827948 21.072344 -345.215607
v -36.716202 -0.217785 -344.332764
v -36.716202 21.072344 -344.332764
v -36.869934 21.072344 -344.303833
v -36.869934 -0.217785 -344.303833
v -30.983894 21.072344 -344.332764
v -30.983894 -0.217785 -344.332764
v -30.827948 -0.217785 -344.303833
v -30.827948 21.072344 -344.303833
v -31.316536 21.072344 -345.136414
v -30.983894 21.072344 -345.136414
v -30.827948 21.072344 -345.215607
v -31.322712 21.072344 -345.215607
v -36.716202 21.072344 -344.332764
v -36.716202 21.072344 -345.136414
v -36.869934 21.072344 -345.215607
v -36.869934 21.072344 -344.303833
v -36.506626 21.072344 -345.136414
v -36.506626 -0.217785 -345.136414
v -36.504883 -0.217785 -345.215607
v -36.504883 21.072344 -345.215607
vn -0.9970 -0.0000 0.0777
vn -0.9970 -0.0000 0.0778
vn -0.0000 1.0000 -0.0000
vn 1.0000 -0.0000 -0.0000
vn -0.0000 -0.0000 -1.0000
vn -1.0000 -0.0000 -0.0000
vn -0.0000 -0.0000 1.0000
vn 0.9845 -0.0000 0.1755
vn 0.9845 -0.0000 0.1754
vn -0.0000 1.0000 -0.0001
vn -0.9910 -0.0000 0.1336
vn -0.9910 -0.0000 0.1335
vn 0.1847 -0.0000 0.9828
vn 0.1850 -0.0000 0.9827
vn -0.1822 -0.0000 0.9833
vn -0.1825 -0.0000 0.9832
vn 0.9998 -0.0000 0.0220
vt 0.354862 0.337610
vt 0.354862 0.251577
vt 0.354862 0.251577
vt 0.354862 0.337610
vt 0.662381 0.954461
vt 0.661263 0.954461
vt 0.661263 0.958842
vt 0.662381 0.958842
vt 0.662381 0.926030
vt 0.661263 0.926030
vt 0.661263 0.954461
vt 0.662381 0.954461
vt 0.282101 0.332525
vt 0.282101 0.252248
vt 0.259923 0.252248
vt 0.259923 0.332525
vt 0.310329 0.332525
vt 0.310329 0.252248
vt 0.310329 0.252248
vt 0.310329 0.332525
vt 0.662380 0.921729
vt 0.661263 0.921729
vt 0.661263 0.926030
vt 0.662381 0.926030
vt 0.259923 0.332525
vt 0.259923 0.252248
vt 0.282101 0.252248
vt 0.282101 0.332525
vt 0.662380 0.894409
vt 0.661263 0.894409
vt 0.661263 0.921729
vt 0.662380 0.921729
vt 0.306766 0.332525
vt 0.306766 0.252248
vt 0.285456 0.252248
vt 0.285456 0.332525
vt 0.285456 0.252248
vt 0.285456 0.332525
vt 0.285456 0.332525
vt 0.285456 0.252248
vt 0.282101 0.332525
vt 0.282101 0.252248
vt 0.282101 0.252248
vt 0.282101 0.332525
vt 0.662380 0.889843
vt 0.661263 0.889843
vt 0.661263 0.894409
vt 0.662380 0.894409
vt 0.285456 0.332525
vt 0.285456 0.252248
vt 0.306766 0.252248
vt 0.306766 0.332525
vt 0.662380 0.861107
vt 0.661262 0.861107
vt 0.661263 0.889843
vt 0.662380 0.889843
vt 0.332743 0.332525
vt 0.332743 0.252248
vt 0.310329 0.252248
vt 0.310329 0.332525
vt 0.285456 0.332525
vt 0.285456 0.252248
vt 0.285456 0.252248
vt 0.285456 0.332525
vt 0.661262 0.856899
vt 0.662380 0.856899
vt 0.662389 0.856484
vt 0.660443 0.856484
vt 0.661262 0.861107
vt 0.662380 0.861107
vt 0.310329 0.332525
vt 0.310329 0.252248
vt 0.332743 0.252248
vt 0.332743 0.332525
vt 0.690059 0.856899
vt 0.662380 0.856899
vt 0.662380 0.861107
vt 0.690059 0.861107
vt 0.690059 0.861107
vt 0.662380 0.861107
vt 0.662380 0.889843
vt 0.690059 0.889843
vt 0.690059 0.889843
vt 0.662380 0.889843
vt 0.662380 0.894409
vt 0.690059 0.894409
vt 0.690059 0.894409
vt 0.662380 0.894409
vt 0.662380 0.921729
vt 0.690059 0.921729
vt 0.690059 0.921729
vt 0.662380 0.921729
vt 0.662381 0.926030
vt 0.690059 0.926030
vt 0.690059 0.926030
vt 0.662381 0.926030
vt 0.662381 0.954461
vt 0.690059 0.954461
vt 0.690059 0.954461
vt 0.662381 0.954461
vt 0.662381 0.958842
vt 0.690059 0.958842
vt 0.354862 0.337610
vt 0.354862 0.251577
vt 0.335448 0.251577
vt 0.335447 0.337610
vt 0.661263 0.958842
vt 0.661263 0.954461
vt 0.660693 0.954461
vt 0.660693 0.959214
vt 0.691833 0.954461
vt 0.690059 0.954461
vt 0.690059 0.958842
vt 0.691833 0.958842
vt 0.691833 0.926030
vt 0.690059 0.926030
vt 0.690059 0.954461
vt 0.691833 0.954461
vt 0.691833 0.921729
vt 0.690059 0.921729
vt 0.690059 0.926030
vt 0.691833 0.926030
vt 0.691833 0.894409
vt 0.690059 0.894409
vt 0.690059 0.921729
vt 0.691833 0.921729
vt 0.691833 0.889843
vt 0.690059 0.889843
vt 0.690059 0.894409
vt 0.691833 0.894409
vt 0.691833 0.861107
vt 0.690059 0.861107
vt 0.690059 0.889843
vt 0.691833 0.889843
vt 0.691833 0.856899
vt 0.690059 0.856899
vt 0.690059 0.861107
vt 0.691833 0.861107
vt 0.335447 0.337610
vt 0.335447 0.251577
vt 0.354862 0.251577
vt 0.354862 0.337610
vt 0.285456 0.332525
vt 0.285456 0.252248
vt 0.282101 0.252248
vt 0.282101 0.332525
vt 0.282101 0.332525
vt 0.282101 0.252248
vt 0.285456 0.252248
vt 0.285456 0.332525
vt 0.310329 0.332525
vt 0.310329 0.252248
vt 0.306766 0.252248
vt 0.306766 0.332525
vt 0.306766 0.332525
vt 0.306766 0.252248
vt 0.310329 0.252248
vt 0.310329 0.332525
vt 0.661263 0.926030
vt 0.661263 0.921729
vt 0.660516 0.921729
vt 0.660516 0.926030
vt 0.306766 0.332525
vt 0.306766 0.252248
vt 0.306766 0.252248
vt 0.306766 0.332525
vt 0.310329 0.252248
vt 0.310329 0.332525
vt 0.310329 0.332525
vt 0.310329 0.252248
vt 0.661263 0.894409
vt 0.661263 0.889843
vt 0.660515 0.889843
vt 0.660515 0.894409
vt 0.691833 0.921729
vt 0.691833 0.926030
vt 0.692580 0.926030
vt 0.692580 0.921729
vt 0.282101 0.252248
vt 0.282101 0.332525
vt 0.282101 0.332525
vt 0.282101 0.252248
vt 0.691833 0.889843
vt 0.691833 0.894409
vt 0.692581 0.894409
vt 0.692580 0.889843
vt 0.306766 0.252248
vt 0.306766 0.332525
vt 0.306766 0.332525
vt 0.306766 0.252248
vt 0.259923 0.332525
vt 0.259923 0.252248
vt 0.256506 0.252248
vt 0.256506 0.332525
vt 0.335447 0.337610
vt 0.335448 0.251577
vt 0.334664 0.251577
vt 0.334664 0.337610
vt 0.256506 0.332525
vt 0.256506 0.252248
vt 0.259923 0.252248
vt 0.259923 0.332525
vt 0.356106 0.337610
vt 0.356106 0.251577
vt 0.354862 0.251577
vt 0.354862 0.337610
vt 0.662381 0.958842
vt 0.661263 0.958842
vt 0.660693 0.959214
vt 0.662313 0.959214
vt 0.259923 0.332525
vt 0.259923 0.252248
vt 0.259923 0.252248
vt 0.259923 0.332525
vt 0.691833 0.954461
vt 0.691833 0.958842
vt 0.692412 0.959214
vt 0.692412 0.954461
vt 0.335447 0.337610
vt 0.335448 0.251577
vt 0.335448 0.251577
vt 0.335447 0.337610
vt 0.259923 0.252248
vt 0.259923 0.332525
vt 0.259923 0.332525
vt 0.259923 0.252248
vt 0.691833 0.958842
vt 0.690059 0.958842
vt 0.690110 0.959214
vt 0.692412 0.959214
vt 0.354862 0.251577
vt 0.354862 0.337610
vt 0.354862 0.337610
vt 0.354862 0.251577
vt 0.332743 0.332525
vt 0.332743 0.252248
vt 0.336026 0.252248
vt 0.336026 0.332525
vt 0.354862 0.337610
vt 0.354862 0.251577
vt 0.356106 0.251577
vt 0.356106 0.337610
vt 0.336026 0.332525
vt 0.336026 0.252248
vt 0.332743 0.252248
vt 0.332743 0.332525
vt 0.334664 0.337610
vt 0.334664 0.251577
vt 0.335447 0.251577
vt 0.335447 0.337610
vt 0.691833 0.856899
vt 0.691833 0.861107
vt 0.692665 0.861259
vt 0.692665 0.856484
vt 0.332743 0.332525
vt 0.332743 0.252248
vt 0.332743 0.252248
vt 0.332743 0.332525
vt 0.332743 0.252248
vt 0.332743 0.332525
vt 0.332743 0.332525
vt 0.332743 0.252248
vt 0.690059 0.856899
vt 0.691833 0.856899
vt 0.692665 0.856484
vt 0.690026 0.856484
vt 0.661262 0.861107
vt 0.661262 0.856899
vt 0.660443 0.856484
vt 0.660443 0.861259
vt 0.335447 0.251577
vt 0.335447 0.337610
vt 0.335447 0.337610
vt 0.335447 0.251577
s 0
usemtl fasades.001
f 1/1/1 2/2/1 3/3/1
f 1/1/2 3/3/2 4/4/2
f 5/5/3 6/6/3 7/7/3
f 5/5/3 7/7/3 8/8/3
f 9/9/3 10/10/3 11/11/3
f 9/9/3 11/11/3 12/12/3
f 13/13/4 14/14/4 15/15/4
f 13/13/4 15/15/4 16/16/4
f 17/17/5 18/18/5 19/19/5
f 17/17/5 19/19/5 20/20/5
f 21/21/3 22/22/3 23/23/3
f 21/21/3 23/23/3 24/24/3
f 25/25/6 26/26/6 27/27/6
f 25/25/6 27/27/6 28/28/6
f 29/29/3 30/30/3 31/31/3
f 29/29/3 31/31/3 32/32/3
f 33/33/4 34/34/4 35/35/4
f 33/33/4 35/35/4 36/36/4
f 37/37/5 38/38/5 39/39/5
f 37/37/5 39/39/5 40/40/5
f 41/41/7 42/42/7 43/43/7
f 41/41/7 43/43/7 44/44/7
f 45/45/3 46/46/3 47/47/3
f 45/45/3 47/47/3 48/48/3
f 49/49/6 50/50/6 51/51/6
f 49/49/6 51/51/6 52/52/6
f 53/53/3 54/54/3 55/55/3
f 53/53/3 55/55/3 56/56/3
f 57/57/4 58/58/4 59/59/4
f 57/57/4 59/59/4 60/60/4
f 61/61/5 62/62/5 63/63/5
f 61/61/5 63/63/5 64/64/5
f 65/65/3 66/66/3 67/67/3
f 65/65/3 67/67/3 68/68/3
f 66/66/3 65/65/3 69/69/3
f 66/66/3 69/69/3 70/70/3
f 71/71/6 72/72/6 73/73/6
f 71/71/6 73/73/6 74/74/6
f 75/75/3 76/76/3 77/77/3
f 75/75/3 77/77/3 78/78/3
f 79/79/3 80/80/3 81/81/3
f 79/79/3 81/81/3 82/82/3
f 83/83/3 84/84/3 85/85/3
f 83/83/3 85/85/3 86/86/3
f 87/87/3 88/88/3 89/89/3
f 87/87/3 89/89/3 90/90/3
f 91/91/3 92/92/3 93/93/3
f 91/91/3 93/93/3 94/94/3
f 95/95/3 96/96/3 97/97/3
f 95/95/3 97/97/3 98/98/3
f 99/99/3 100/100/3 101/101/3
f 99/99/3 101/101/3 102/102/3
f 103/103/7 104/104/7 105/105/7
f 103/103/7 105/105/7 106/106/7
f 107/107/3 108/108/3 109/109/3
f 107/107/3 109/109/3 110/110/3
f 111/111/3 112/112/3 113/113/3
f 111/111/3 113/113/3 114/114/3
f 115/115/3 116/116/3 117/117/3
f 115/115/3 117/117/3 118/118/3
f 119/119/3 120/120/3 121/121/3
f 119/119/3 121/121/3 122/122/3
f 123/123/3 124/124/3 125/125/3
f 123/123/3 125/125/3 126/126/3
f 127/127/3 128/128/3 129/129/3
f 127/127/3 129/129/3 130/130/3
f 131/131/3 132/132/3 133/133/3
f 131/131/3 133/133/3 134/134/3
f 135/135/3 136/136/3 137/137/3
f 135/135/3 137/137/3 138/138/3
f 139/139/5 140/140/5 141/141/5
f 139/139/5 141/141/5 142/142/5
f 143/143/4 144/144/4 145/145/4
f 143/143/4 145/145/4 146/146/4
f 147/147/6 148/148/6 149/149/6
f 147/147/6 149/149/6 150/150/6
f 151/151/4 152/152/4 153/153/4
f 151/151/4 153/153/4 154/154/4
f 155/155/6 156/156/6 157/157/6
f 155/155/6 157/157/6 158/158/6
f 159/159/3 160/160/3 161/161/3
f 159/159/3 161/161/3 162/162/3
f 163/163/7 164/164/7 165/165/7
f 163/163/7 165/165/7 166/166/7
f 167/167/5 168/168/5 169/169/5
f 167/167/5 169/169/5 170/170/5
f 171/171/3 172/172/3 173/173/3
f 171/171/3 173/173/3 174/174/3
f 175/175/3 176/176/3 177/177/3
f 175/175/3 177/177/3 178/178/3
f 179/179/7 180/180/7 181/181/7
f 179/179/7 181/181/7 182/182/7
f 183/183/3 184/184/3 185/185/3
f 183/183/3 185/185/3 186/186/3
f 187/187/7 188/188/7 189/189/7
f 187/187/7 189/189/7 190/190/7
f 191/191/4 192/192/4 193/193/4
f 191/191/4 193/193/4 194/194/4
f 195/195/7 196/196/7 197/197/7
f 195/195/7 197/197/7 198/198/7
f 199/199/6 200/200/6 201/201/6
f 199/199/6 201/201/6 202/202/6
f 203/203/7 204/204/7 205/205/7
f 203/203/7 205/205/7 206/206/7
f 207/207/3 208/208/3 209/209/3
f 207/207/3 209/209/3 210/210/3
f 211/211/5 212/212/5 213/213/5
f 211/211/5 213/213/5 214/214/5
f 215/215/3 216/216/3 217/217/3
f 215/215/3 217/217/3 218/218/3
f 219/219/8 220/220/8 221/221/8
f 219/219/9 221/221/9 222/222/9
f 223/223/5 224/224/5 225/225/5
f 223/223/5 225/225/5 226/226/5
f 227/227/3 228/228/3 229/229/3
f 227/227/10 229/229/10 230/230/10
f 231/231/11 232/232/11 233/233/11
f 231/231/12 233/233/12 234/234/12
f 235/235/6 236/236/6 237/237/6
f 235/235/6 237/237/6 238/238/6
f 239/239/5 240/240/5 241/241/5
f 239/239/5 241/241/5 242/242/5
f 243/243/4 244/244/4 245/245/4
f 243/243/4 245/245/4 246/246/4
f 247/247/5 248/248/5 249/249/5
f 247/247/5 249/249/5 250/250/5
f 251/251/3 252/252/3 253/253/3
f 251/251/3 253/253/3 254/254/3
f 255/255/13 256/256/13 257/257/13
f 255/255/14 257/257/14 258/258/14
f 259/259/15 260/260/15 261/261/15
f 259/259/16 261/261/16 262/262/16
f 263/263/3 264/264/3 265/265/3
f 263/263/3 265/265/3 266/266/3
f 267/267/3 268/268/3 269/269/3
f 267/267/3 269/269/3 270/270/3
f 271/271/17 272/272/17 273/273/17
f 271/271/17 273/273/17 274/274/17
