# Blender 3.5.1
# www.blender.org
mtllib gedung15.mtl
o Object_64_Object_28
v -90.489403 10.227167 -123.733398
v -90.489403 0.162948 -123.733398
v -80.407013 0.162948 -123.711517
v -80.407013 10.227167 -123.711517
v -90.489403 20.291388 -123.733398
v -90.489403 10.227167 -123.733398
v -80.407013 10.227167 -123.711517
v -80.407013 20.291388 -123.711517
v -90.489403 50.484051 -123.733398
v -90.489403 40.419830 -123.733398
v -80.407013 40.419834 -123.711517
v -80.407013 50.484051 -123.711517
v -90.489403 60.548275 -123.733414
v -90.489403 50.484051 -123.733398
v -80.407013 50.484051 -123.711517
v -80.407013 60.548275 -123.711533
v -80.407013 10.227167 -123.711517
v -80.407013 0.162948 -123.711517
v -70.342789 0.162948 -123.711517
v -70.342789 10.227167 -123.711517
v -80.407013 20.291388 -123.711517
v -80.407013 10.227167 -123.711517
v -70.342789 10.227167 -123.711517
v -70.342789 20.291388 -123.711517
v -80.407013 30.355608 -123.711517
v -80.407013 20.291388 -123.711517
v -70.342789 20.291388 -123.711517
v -70.342789 30.355608 -123.711517
v -80.407013 40.419834 -123.711517
v -80.407013 30.355608 -123.711517
v -70.342789 30.355608 -123.711517
v -70.342789 40.419830 -123.711517
v -80.407013 50.484051 -123.711517
v -80.407013 40.419834 -123.711517
v -70.342789 40.419830 -123.711517
v -70.342789 50.484055 -123.711517
v -80.407013 60.548275 -123.711533
v -80.407013 50.484051 -123.711517
v -70.342789 50.484055 -123.711517
v -70.342789 60.548275 -123.711533
v -70.342789 20.291388 -123.711517
v -70.342789 10.227167 -123.711517
v -60.278572 10.227167 -123.711517
v -60.278572 20.291388 -123.711517
v -70.342789 30.355608 -123.711517
v -70.342789 20.291388 -123.711517
v -60.278572 20.291388 -123.711517
v -60.278572 30.355608 -123.711517
v -70.342789 40.419830 -123.711517
v -70.342789 30.355608 -123.711517
v -60.278572 30.355608 -123.711517
v -60.278572 40.419830 -123.711517
v -70.342789 50.484055 -123.711517
v -70.342789 40.419830 -123.711517
v -60.278572 40.419830 -123.711517
v -60.278572 50.484051 -123.711517
v -70.342789 60.548275 -123.711533
v -70.342789 50.484055 -123.711517
v -60.278572 50.484051 -123.711517
v -60.278572 60.548275 -123.711533
v -60.278572 20.291388 -123.711517
v -60.278572 10.227167 -123.711517
v -60.342758 10.227165 -133.785980
v -60.342758 20.291388 -133.785980
v -60.278572 30.355608 -123.711517
v -60.278572 20.291388 -123.711517
v -60.342758 20.291388 -133.785980
v -60.342758 30.355608 -133.785980
v -60.278572 40.419830 -123.711517
v -60.278572 30.355608 -123.711517
v -60.342758 30.355608 -133.785980
v -60.342758 40.419823 -133.785980
v -60.278572 50.484051 -123.711517
v -60.278572 40.419830 -123.711517
v -60.342758 40.419823 -133.785980
v -60.342758 50.484047 -133.785980
v -60.278572 60.548275 -123.711533
v -60.278572 50.484051 -123.711517
v -60.342758 50.484047 -133.785980
v -60.342758 60.548267 -133.785980
v -60.342758 10.227165 -133.785980
v -60.342758 0.162946 -133.785980
v -70.406975 0.162946 -133.785980
v -70.406975 10.227165 -133.785980
v -60.342758 20.291388 -133.785980
v -60.342758 10.227165 -133.785980
v -70.406975 10.227165 -133.785980
v -70.406975 20.291388 -133.785980
v -60.342758 30.355608 -133.785980
v -60.342758 20.291388 -133.785980
v -70.406975 20.291388 -133.785980
v -70.406975 30.355608 -133.785980
v -60.342758 40.419823 -133.785980
v -60.342758 30.355608 -133.785980
v -70.406975 30.355608 -133.785980
v -70.406975 40.419827 -133.785980
v -60.342758 50.484047 -133.785980
v -60.342758 40.419823 -133.785980
v -70.406975 40.419827 -133.785980
v -70.406975 50.484047 -133.785980
v -60.342758 60.548267 -133.785980
v -60.342758 50.484047 -133.785980
v -70.406975 50.484047 -133.785980
v -70.406975 60.548267 -133.785980
v -70.406975 10.227165 -133.785980
v -70.406975 0.162946 -133.785980
v -80.471191 0.162946 -133.785980
v -80.471191 10.227165 -133.785980
v -70.406975 20.291388 -133.785980
v -70.406975 10.227165 -133.785980
v -80.471191 10.227165 -133.785980
v -80.471191 20.291388 -133.785980
v -70.406975 30.355608 -133.785980
v -70.406975 20.291388 -133.785980
v -80.471191 20.291388 -133.785980
v -80.471191 30.355608 -133.785980
v -70.406975 40.419827 -133.785980
v -70.406975 30.355608 -133.785980
v -80.471191 30.355608 -133.785980
v -80.471191 40.419827 -133.785980
v -70.406975 50.484047 -133.785980
v -70.406975 40.419827 -133.785980
v -80.471191 40.419827 -133.785980
v -80.471191 50.484047 -133.785980
v -70.406975 60.548267 -133.785980
v -70.406975 50.484047 -133.785980
v -80.471191 50.484047 -133.785980
v -80.471191 60.548267 -133.785980
v -80.471191 10.227165 -133.785980
v -80.471191 0.162946 -133.785980
v -90.489395 0.162946 -133.797623
v -90.489395 10.227165 -133.797623
v -80.471191 20.291388 -133.785980
v -80.471191 10.227165 -133.785980
v -90.489395 10.227165 -133.797623
v -90.489395 20.291388 -133.797623
v -80.471191 30.355608 -133.785980
v -80.471191 20.291388 -133.785980
v -90.489395 20.291388 -133.797623
v -90.489395 30.355608 -133.797623
v -80.471191 40.419827 -133.785980
v -80.471191 30.355608 -133.785980
v -90.489395 30.355608 -133.797623
v -90.489395 40.419827 -133.797623
v -80.471191 50.484047 -133.785980
v -80.471191 40.419827 -133.785980
v -90.489395 40.419827 -133.797623
v -90.489395 50.484043 -133.797623
v -80.471191 60.548267 -133.785980
v -80.471191 50.484047 -133.785980
v -90.489395 50.484043 -133.797623
v -90.489395 60.548267 -133.797623
v -90.489395 10.227165 -133.797623
v -90.489395 0.162946 -133.797623
v -90.489403 0.162948 -123.733398
v -90.489403 10.227167 -123.733398
v -90.489395 20.291388 -133.797623
v -90.489395 10.227165 -133.797623
v -90.489403 10.227167 -123.733398
v -90.489403 20.291388 -123.733398
v -90.489395 50.484043 -133.797623
v -90.489395 40.419827 -133.797623
v -90.489403 40.419830 -123.733398
v -90.489403 50.484051 -123.733398
v -90.489395 60.548267 -133.797623
v -90.489395 50.484043 -133.797623
v -90.489403 50.484051 -123.733398
v -90.489403 60.548275 -123.733414
v -90.471222 30.355608 -123.711517
v -90.489403 20.291388 -123.733398
v -80.407013 20.291388 -123.711517
v -80.407013 30.355608 -123.711517
v -90.489403 40.419830 -123.733398
v -90.471222 30.355608 -123.711517
v -80.407013 30.355608 -123.711517
v -80.407013 40.419834 -123.711517
v -70.342789 10.227167 -123.711517
v -70.342789 0.162948 -123.711517
v -60.323700 0.162948 -123.702095
v -60.278572 10.227167 -123.711517
v -60.278572 10.227167 -123.711517
v -60.323700 0.162948 -123.702095
v -60.342758 0.162946 -133.785980
v -60.342758 10.227165 -133.785980
v -90.489395 30.355608 -133.797623
v -90.489395 20.291388 -133.797623
v -90.489403 20.291388 -123.733398
v -90.471222 30.355608 -123.711517
v -90.489395 40.419827 -133.797623
v -90.489395 30.355608 -133.797623
v -90.471222 30.355608 -123.711517
v -90.489403 40.419830 -123.733398
vn -0.0022 -0.0000 1.0000
vn -0.0000 -0.0000 1.0000
vn 1.0000 -0.0000 -0.0064
vn -0.0000 -0.0000 -1.0000
vn 0.0012 -0.0000 -1.0000
vn -1.0000 -0.0000 -0.0000
vn -0.0011 -0.0011 1.0000
vn -0.0011 0.0011 1.0000
vn -0.0010 0.0011 1.0000
vn -0.0005 0.0005 1.0000
vn -0.0004 0.0006 1.0000
vn 1.0000 -0.0022 -0.0041
vn -1.0000 0.0009 0.0009
vn -1.0000 0.0010 0.0010
vn -1.0000 -0.0009 0.0009
vn -1.0000 -0.0006 0.0012
vt 0.500200 0.999800
vt 0.999800 0.999800
vt 0.999800 0.500200
vt 0.500200 0.500200
vt 0.500200 0.999800
vt 0.999800 0.999800
vt 0.999800 0.500200
vt 0.500200 0.500200
vt 0.500200 0.999800
vt 0.999800 0.999800
vt 0.999800 0.500200
vt 0.500200 0.500200
vt 0.500200 0.999800
vt 0.999800 0.999800
vt 0.999800 0.500200
vt 0.500200 0.500200
vt 0.500200 0.999800
vt 0.999800 0.999800
vt 0.999800 0.500200
vt 0.500200 0.500200
vt 0.500200 0.999800
vt 0.999800 0.999800
vt 0.999800 0.500200
vt 0.500200 0.500200
vt 0.500200 0.999800
vt 0.999800 0.999800
vt 0.999800 0.500200
vt 0.500200 0.500200
vt 0.500200 0.999800
vt 0.999800 0.999800
vt 0.999800 0.500200
vt 0.500200 0.500200
vt 0.500200 0.999800
vt 0.999800 0.999800
vt 0.999800 0.500200
vt 0.500200 0.500200
vt 0.500200 0.999800
vt 0.999800 0.999800
vt 0.999800 0.500200
vt 0.500200 0.500200
vt 0.500200 0.999800
vt 0.999800 0.999800
vt 0.999800 0.500200
vt 0.500200 0.500200
vt 0.500200 0.999800
vt 0.999800 0.999800
vt 0.999800 0.500200
vt 0.500200 0.500200
vt 0.500200 0.999800
vt 0.999800 0.999800
vt 0.999800 0.500200
vt 0.500200 0.500200
vt 0.500200 0.999800
vt 0.999800 0.999800
vt 0.999800 0.500200
vt 0.500200 0.500200
vt 0.500200 0.999800
vt 0.999800 0.999800
vt 0.999800 0.500200
vt 0.500200 0.500200
vt 0.500200 0.999800
vt 0.999800 0.999800
vt 0.999800 0.500200
vt 0.500200 0.500200
vt 0.500200 0.999800
vt 0.999800 0.999800
vt 0.999800 0.500200
vt 0.500200 0.500200
vt 0.500200 0.999800
vt 0.999800 0.999800
vt 0.999800 0.500200
vt 0.500200 0.500200
vt 0.500200 0.999800
vt 0.999800 0.999800
vt 0.999800 0.500200
vt 0.500200 0.500200
vt 0.500200 0.999800
vt 0.999800 0.999800
vt 0.999800 0.500200
vt 0.500200 0.500200
vt 0.500200 0.999800
vt 0.999800 0.999800
vt 0.999800 0.500200
vt 0.500200 0.500200
vt 0.500200 0.999800
vt 0.999800 0.999800
vt 0.999800 0.500200
vt 0.500200 0.500200
vt 0.500200 0.999800
vt 0.999800 0.999800
vt 0.999800 0.500200
vt 0.500200 0.500200
vt 0.500200 0.999800
vt 0.999800 0.999800
vt 0.999800 0.500200
vt 0.500200 0.500200
vt 0.500200 0.999800
vt 0.999800 0.999800
vt 0.999800 0.500200
vt 0.500200 0.500200
vt 0.500200 0.999800
vt 0.999800 0.999800
vt 0.999800 0.500200
vt 0.500200 0.500200
vt 0.500200 0.999800
vt 0.999800 0.999800
vt 0.999800 0.500200
vt 0.500200 0.500200
vt 0.500200 0.999800
vt 0.999800 0.999800
vt 0.999800 0.500200
vt 0.500200 0.500200
vt 0.500200 0.999800
vt 0.999800 0.999800
vt 0.999800 0.500200
vt 0.500200 0.500200
vt 0.500200 0.999800
vt 0.999800 0.999800
vt 0.999800 0.500200
vt 0.500200 0.500200
vt 0.500200 0.999800
vt 0.999800 0.999800
vt 0.999800 0.500200
vt 0.500200 0.500200
vt 0.500200 0.999800
vt 0.999800 0.999800
vt 0.999800 0.500200
vt 0.500200 0.500200
vt 0.500200 0.999800
vt 0.999800 0.999800
vt 0.999800 0.500200
vt 0.500200 0.500200
vt 0.500200 0.999800
vt 0.999800 0.999800
vt 0.999800 0.500200
vt 0.500200 0.500200
vt 0.500200 0.999800
vt 0.999800 0.999800
vt 0.999800 0.500200
vt 0.500200 0.500200
vt 0.500200 0.999800
vt 0.999800 0.999800
vt 0.999800 0.500200
vt 0.500200 0.500200
vt 0.500200 0.999800
vt 0.999800 0.999800
vt 0.999800 0.500200
vt 0.500200 0.500200
vt 0.500200 0.999800
vt 0.999800 0.999800
vt 0.999800 0.500200
vt 0.500200 0.500200
vt 0.500200 0.999800
vt 0.999800 0.999800
vt 0.999800 0.500200
vt 0.500200 0.500200
vt 0.500200 0.999800
vt 0.999800 0.999800
vt 0.999800 0.500200
vt 0.500200 0.500200
vt 0.500200 0.999800
vt 0.999800 0.999800
vt 0.999800 0.500200
vt 0.500200 0.500200
vt 0.500200 0.999800
vt 0.999800 0.999800
vt 0.999800 0.500200
vt 0.500200 0.500200
vt 0.500200 0.999800
vt 0.999800 0.999800
vt 0.999800 0.500200
vt 0.500200 0.500200
vt 0.500200 0.999800
vt 0.999800 0.999800
vt 0.999800 0.500200
vt 0.500200 0.500200
vt 0.500200 0.999800
vt 0.999800 0.999800
vt 0.999800 0.500200
vt 0.500200 0.500200
vt 0.500200 0.999800
vt 0.999800 0.999800
vt 0.999800 0.500200
vt 0.500200 0.500200
vt 0.500200 0.999800
vt 0.999800 0.999800
vt 0.999800 0.500200
vt 0.500200 0.500200
vt 0.500200 0.999800
vt 0.999800 0.999800
vt 0.999800 0.500200
vt 0.500200 0.500200
s 0
usemtl fasades2.001
f 1/1/1 2/2/1 3/3/1
f 1/1/1 3/3/1 4/4/1
f 5/5/1 6/6/1 7/7/1
f 5/5/1 7/7/1 8/8/1
f 9/9/1 10/10/1 11/11/1
f 9/9/1 11/11/1 12/12/1
f 13/13/1 14/14/1 15/15/1
f 13/13/1 15/15/1 16/16/1
f 17/17/2 18/18/2 19/19/2
f 17/17/2 19/19/2 20/20/2
f 21/21/2 22/22/2 23/23/2
f 21/21/2 23/23/2 24/24/2
f 25/25/2 26/26/2 27/27/2
f 25/25/2 27/27/2 28/28/2
f 29/29/2 30/30/2 31/31/2
f 29/29/2 31/31/2 32/32/2
f 33/33/2 34/34/2 35/35/2
f 33/33/2 35/35/2 36/36/2
f 37/37/2 38/38/2 39/39/2
f 37/37/2 39/39/2 40/40/2
f 41/41/2 42/42/2 43/43/2
f 41/41/2 43/43/2 44/44/2
f 45/45/2 46/46/2 47/47/2
f 45/45/2 47/47/2 48/48/2
f 49/49/2 50/50/2 51/51/2
f 49/49/2 51/51/2 52/52/2
f 53/53/2 54/54/2 55/55/2
f 53/53/2 55/55/2 56/56/2
f 57/57/2 58/58/2 59/59/2
f 57/57/2 59/59/2 60/60/2
f 61/61/3 62/62/3 63/63/3
f 61/61/3 63/63/3 64/64/3
f 65/65/3 66/66/3 67/67/3
f 65/65/3 67/67/3 68/68/3
f 69/69/3 70/70/3 71/71/3
f 69/69/3 71/71/3 72/72/3
f 73/73/3 74/74/3 75/75/3
f 73/73/3 75/75/3 76/76/3
f 77/77/3 78/78/3 79/79/3
f 77/77/3 79/79/3 80/80/3
f 81/81/4 82/82/4 83/83/4
f 81/81/4 83/83/4 84/84/4
f 85/85/4 86/86/4 87/87/4
f 85/85/4 87/87/4 88/88/4
f 89/89/4 90/90/4 91/91/4
f 89/89/4 91/91/4 92/92/4
f 93/93/4 94/94/4 95/95/4
f 93/93/4 95/95/4 96/96/4
f 97/97/4 98/98/4 99/99/4
f 97/97/4 99/99/4 100/100/4
f 101/101/4 102/102/4 103/103/4
f 101/101/4 103/103/4 104/104/4
f 105/105/4 106/106/4 107/107/4
f 105/105/4 107/107/4 108/108/4
f 109/109/4 110/110/4 111/111/4
f 109/109/4 111/111/4 112/112/4
f 113/113/4 114/114/4 115/115/4
f 113/113/4 115/115/4 116/116/4
f 117/117/4 118/118/4 119/119/4
f 117/117/4 119/119/4 120/120/4
f 121/121/4 122/122/4 123/123/4
f 121/121/4 123/123/4 124/124/4
f 125/125/4 126/126/4 127/127/4
f 125/125/4 127/127/4 128/128/4
f 129/129/5 130/130/5 131/131/5
f 129/129/5 131/131/5 132/132/5
f 133/133/5 134/134/5 135/135/5
f 133/133/5 135/135/5 136/136/5
f 137/137/5 138/138/5 139/139/5
f 137/137/5 139/139/5 140/140/5
f 141/141/5 142/142/5 143/143/5
f 141/141/5 143/143/5 144/144/5
f 145/145/5 146/146/5 147/147/5
f 145/145/5 147/147/5 148/148/5
f 149/149/5 150/150/5 151/151/5
f 149/149/5 151/151/5 152/152/5
f 153/153/6 154/154/6 155/155/6
f 153/153/6 155/155/6 156/156/6
f 157/157/6 158/158/6 159/159/6
f 157/157/6 159/159/6 160/160/6
f 161/161/6 162/162/6 163/163/6
f 161/161/6 163/163/6 164/164/6
f 165/165/6 166/166/6 167/167/6
f 165/165/6 167/167/6 168/168/6
s 1
f 169/169/7 170/170/7 171/171/7
f 169/169/7 171/171/7 172/172/7
f 173/173/8 174/174/9 175/175/8
f 173/173/8 175/175/8 176/176/8
f 177/177/10 178/178/10 179/179/10
f 177/177/10 179/179/10 180/180/11
f 181/181/12 182/182/12 183/183/12
f 181/181/12 183/183/12 184/184/12
f 185/185/13 186/186/13 187/187/13
f 185/185/13 187/187/13 188/188/14
f 189/189/15 190/190/16 191/191/15
f 189/189/15 191/191/15 192/192/15
