# Blender 3.5.1
# www.blender.org
mtllib gedung24.mtl
o Object_932_Object_432
v -344.614044 -0.177557 -45.144131
v -344.614044 35.379990 -45.144138
v -344.614044 35.379990 -26.581518
v -344.614044 -0.177555 -26.581514
v -344.614044 -0.177555 -26.581514
v -344.614044 35.379990 -26.581518
v -352.806763 35.379990 -26.581524
v -352.806763 -0.177555 -26.581518
v -352.806763 -0.177557 -45.144138
v -352.806763 35.379990 -45.144146
v -344.614044 35.379990 -45.144138
v -344.614044 -0.177557 -45.144131
v -360.999512 35.379990 -45.144146
v -369.192230 35.379990 -45.144150
v -368.913055 35.379990 -44.933308
v -360.906433 35.379990 -44.933304
v -352.806763 -0.177555 -26.581518
v -352.806763 35.379990 -26.581524
v -360.999512 35.379990 -26.581524
v -360.999512 -0.177555 -26.581520
v -360.999512 -0.177557 -45.144138
v -360.999512 35.379990 -45.144146
v -352.806763 35.379990 -45.144146
v -352.806763 -0.177557 -45.144138
v -344.614044 35.379990 -26.581518
v -344.614044 35.379990 -45.144138
v -344.893219 35.379990 -44.933300
v -344.893219 35.379990 -26.792358
v -360.999512 -0.177555 -26.581520
v -360.999512 35.379990 -26.581524
v -369.192230 35.379990 -26.581530
v -369.192230 -0.177555 -26.581526
v -369.192230 -0.177555 -26.581526
v -369.192230 35.379990 -26.581530
v -369.192230 35.379990 -45.144150
v -369.192230 -0.177557 -45.144142
v -369.192230 -0.177557 -45.144142
v -369.192230 35.379990 -45.144150
v -360.999512 35.379990 -45.144146
v -360.999512 -0.177557 -45.144138
v -352.806763 35.379990 -26.581524
v -344.614044 35.379990 -26.581518
v -344.893219 35.379990 -26.792358
v -352.899841 35.379990 -26.792364
v -360.906433 35.379990 -44.933304
v -368.913055 35.379990 -44.933308
v -368.913055 35.217361 -44.933308
v -360.906433 35.217361 -44.933304
v -352.899811 35.379990 -44.933304
v -360.906433 35.379990 -44.933304
v -360.906433 35.217361 -44.933304
v -352.899811 35.217361 -44.933304
v -344.893219 35.379990 -26.792358
v -344.893219 35.379990 -44.933300
v -344.893219 35.217361 -44.933300
v -344.893219 35.217361 -26.792358
v -344.614044 35.379990 -45.144138
v -352.806763 35.379990 -45.144146
v -352.899811 35.379990 -44.933304
v -344.893219 35.379990 -44.933300
v -352.806763 35.379990 -45.144146
v -360.999512 35.379990 -45.144146
v -360.906433 35.379990 -44.933304
v -352.899811 35.379990 -44.933304
v -369.192230 35.379990 -26.581530
v -360.999512 35.379990 -26.581524
v -360.906464 35.379990 -26.792364
v -368.913055 35.379990 -26.792368
v -360.999512 35.379990 -26.581524
v -352.806763 35.379990 -26.581524
v -352.899841 35.379990 -26.792364
v -360.906464 35.379990 -26.792364
v -369.192230 35.379990 -45.144150
v -369.192230 35.379990 -26.581530
v -368.913055 35.379990 -26.792368
v -368.913055 35.379990 -44.933308
v -352.899841 35.217361 -26.792364
v -344.893219 35.217361 -26.792358
v -344.893219 35.217361 -44.933300
v -352.899811 35.217361 -44.933304
v -360.906464 35.217361 -26.792364
v -352.899841 35.217361 -26.792364
v -352.899811 35.217361 -44.933304
v -360.906433 35.217361 -44.933304
v -368.913055 35.217361 -26.792368
v -360.906464 35.217361 -26.792364
v -360.906433 35.217361 -44.933304
v -368.913055 35.217361 -44.933308
v -368.913055 35.379990 -26.792368
v -360.906464 35.379990 -26.792364
v -360.906464 35.217361 -26.792364
v -368.913055 35.217361 -26.792368
v -344.893219 35.379990 -44.933300
v -352.899811 35.379990 -44.933304
v -352.899811 35.217361 -44.933304
v -344.893219 35.217361 -44.933300
v -352.899841 35.379990 -26.792364
v -344.893219 35.379990 -26.792358
v -344.893219 35.217361 -26.792358
v -352.899841 35.217361 -26.792364
v -360.906464 35.379990 -26.792364
v -352.899841 35.379990 -26.792364
v -352.899841 35.217361 -26.792364
v -360.906464 35.217361 -26.792364
v -368.913055 35.379990 -44.933308
v -368.913055 35.379990 -26.792368
v -368.913055 35.217361 -26.792368
v -368.913055 35.217361 -44.933308
vn 1.0000 -0.0000 -0.0000
vn -0.0000 -0.0000 1.0000
vn -0.0000 -0.0000 -1.0000
vn -0.0000 1.0000 -0.0000
vn -1.0000 -0.0000 -0.0000
vt 0.280710 0.230998
vt 0.280710 0.000622
vt 0.399666 0.000622
vt 0.399666 0.230998
vt 0.228904 0.231302
vt 0.228904 0.000005
vt 0.287033 0.000005
vt 0.287033 0.231302
vt 0.287033 0.231302
vt 0.287033 0.000005
vt 0.228904 0.000005
vt 0.228904 0.231302
vt 0.228904 0.000005
vt 0.287033 0.000005
vt 0.287033 0.000005
vt 0.228904 0.000005
vt 0.228904 0.231302
vt 0.228904 0.000005
vt 0.287033 0.000005
vt 0.287033 0.231302
vt 0.287033 0.231302
vt 0.287033 0.000005
vt 0.228904 0.000005
vt 0.228904 0.231302
vt 0.399666 0.000622
vt 0.280710 0.000622
vt 0.280710 0.000622
vt 0.399666 0.000622
vt 0.228904 0.231302
vt 0.228904 0.000005
vt 0.287033 0.000005
vt 0.287033 0.231302
vt 0.399666 0.230998
vt 0.399666 0.000622
vt 0.280710 0.000622
vt 0.280710 0.230998
vt 0.287033 0.231302
vt 0.287033 0.000005
vt 0.228904 0.000005
vt 0.228904 0.231302
vt 0.287033 0.000005
vt 0.228904 0.000005
vt 0.228904 0.000005
vt 0.287033 0.000005
vt 0.228904 0.000005
vt 0.287033 0.000005
vt 0.287033 0.000005
vt 0.228904 0.000005
vt 0.228904 0.000005
vt 0.287033 0.000005
vt 0.287033 0.000005
vt 0.228904 0.000005
vt 0.399666 0.000622
vt 0.280710 0.000622
vt 0.280710 0.000622
vt 0.399666 0.000622
vt 0.228904 0.000005
vt 0.287033 0.000005
vt 0.287033 0.000005
vt 0.228904 0.000005
vt 0.228904 0.000005
vt 0.287033 0.000005
vt 0.287033 0.000005
vt 0.228904 0.000005
vt 0.287033 0.000005
vt 0.228904 0.000005
vt 0.228904 0.000005
vt 0.287033 0.000005
vt 0.287033 0.000005
vt 0.228904 0.000005
vt 0.228904 0.000005
vt 0.287033 0.000005
vt 0.280710 0.000622
vt 0.399666 0.000622
vt 0.399666 0.000622
vt 0.280710 0.000622
vt 0.346867 0.922036
vt 0.313435 0.922036
vt 0.313435 0.997784
vt 0.346867 0.997784
vt 0.380299 0.922036
vt 0.346867 0.922036
vt 0.346867 0.997784
vt 0.380299 0.997784
vt 0.413731 0.922036
vt 0.380299 0.922036
vt 0.380299 0.997784
vt 0.413731 0.997784
vt 0.287033 0.000005
vt 0.228904 0.000005
vt 0.228904 0.000005
vt 0.287033 0.000005
vt 0.228904 0.000005
vt 0.287033 0.000005
vt 0.287033 0.000005
vt 0.228904 0.000005
vt 0.287033 0.000005
vt 0.228904 0.000005
vt 0.228904 0.000005
vt 0.287033 0.000005
vt 0.287033 0.000005
vt 0.228904 0.000005
vt 0.228904 0.000005
vt 0.287033 0.000005
vt 0.280710 0.000622
vt 0.399666 0.000622
vt 0.399666 0.000622
vt 0.280710 0.000622
s 0
usemtl fasades.001
f 1/1/1 2/2/1 3/3/1
f 1/1/1 3/3/1 4/4/1
f 5/5/2 6/6/2 7/7/2
f 5/5/2 7/7/2 8/8/2
f 9/9/3 10/10/3 11/11/3
f 9/9/3 11/11/3 12/12/3
f 13/13/4 14/14/4 15/15/4
f 13/13/4 15/15/4 16/16/4
f 17/17/2 18/18/2 19/19/2
f 17/17/2 19/19/2 20/20/2
f 21/21/3 22/22/3 23/23/3
f 21/21/3 23/23/3 24/24/3
f 25/25/4 26/26/4 27/27/4
f 25/25/4 27/27/4 28/28/4
f 29/29/2 30/30/2 31/31/2
f 29/29/2 31/31/2 32/32/2
f 33/33/5 34/34/5 35/35/5
f 33/33/5 35/35/5 36/36/5
f 37/37/3 38/38/3 39/39/3
f 37/37/3 39/39/3 40/40/3
f 41/41/4 42/42/4 43/43/4
f 41/41/4 43/43/4 44/44/4
f 45/45/2 46/46/2 47/47/2
f 45/45/2 47/47/2 48/48/2
f 49/49/2 50/50/2 51/51/2
f 49/49/2 51/51/2 52/52/2
f 53/53/5 54/54/5 55/55/5
f 53/53/5 55/55/5 56/56/5
f 57/57/4 58/58/4 59/59/4
f 57/57/4 59/59/4 60/60/4
f 61/61/4 62/62/4 63/63/4
f 61/61/4 63/63/4 64/64/4
f 65/65/4 66/66/4 67/67/4
f 65/65/4 67/67/4 68/68/4
f 69/69/4 70/70/4 71/71/4
f 69/69/4 71/71/4 72/72/4
f 73/73/4 74/74/4 75/75/4
f 73/73/4 75/75/4 76/76/4
f 77/77/4 78/78/4 79/79/4
f 77/77/4 79/79/4 80/80/4
f 81/81/4 82/82/4 83/83/4
f 81/81/4 83/83/4 84/84/4
f 85/85/4 86/86/4 87/87/4
f 85/85/4 87/87/4 88/88/4
f 89/89/3 90/90/3 91/91/3
f 89/89/3 91/91/3 92/92/3
f 93/93/2 94/94/2 95/95/2
f 93/93/2 95/95/2 96/96/2
f 97/97/3 98/98/3 99/99/3
f 97/97/3 99/99/3 100/100/3
f 101/101/3 102/102/3 103/103/3
f 101/101/3 103/103/3 104/104/3
f 105/105/1 106/106/1 107/107/1
f 105/105/1 107/107/1 108/108/1
