# Blender 3.5.1
# www.blender.org
mtllib gedung12.mtl
o Object_114_Object_52
v -84.604584 12.952700 -205.917572
v -84.604584 0.306239 -205.917572
v -71.969391 0.306239 -205.873596
v -71.969391 12.952700 -205.873596
v -84.604584 25.599159 -205.917572
v -84.604584 12.952700 -205.917572
v -71.969391 12.952700 -205.873596
v -71.969391 25.599159 -205.873596
v -84.604584 38.245621 -205.917572
v -84.604584 25.599159 -205.917572
v -71.969391 25.599159 -205.873596
v -71.969391 38.245621 -205.873596
v -84.604584 50.892078 -205.917572
v -84.604584 38.245621 -205.917572
v -71.969391 38.245621 -205.873596
v -71.969391 50.892078 -205.873596
v -71.969391 12.952700 -205.873596
v -71.969391 0.306239 -205.873596
v -59.322933 0.306239 -205.873596
v -59.322933 12.952700 -205.873596
v -71.969391 25.599159 -205.873596
v -71.969391 12.952700 -205.873596
v -59.322933 12.952700 -205.873596
v -59.323105 25.599159 -205.872833
v -71.969391 38.245621 -205.873596
v -71.969391 25.599159 -205.873596
v -59.323105 25.599159 -205.872833
v -59.322933 38.245621 -205.873596
v -71.969391 50.892078 -205.873596
v -71.969391 38.245621 -205.873596
v -59.322933 38.245621 -205.873596
v -59.322933 50.892078 -205.873596
v -59.322933 12.952700 -205.873596
v -59.322933 0.306239 -205.873596
v -59.323105 0.306237 -218.519302
v -59.323105 12.952698 -218.519302
v -59.323105 25.599159 -205.872833
v -59.322933 12.952700 -205.873596
v -59.323105 12.952698 -218.519302
v -59.323105 25.599155 -218.519302
v -59.322933 38.245621 -205.873596
v -59.323105 25.599159 -205.872833
v -59.323105 25.599155 -218.519302
v -59.323105 38.245621 -218.519302
v -59.322933 50.892078 -205.873596
v -59.322933 38.245621 -205.873596
v -59.323105 38.245621 -218.519302
v -59.323105 50.892078 -218.519302
v -66.976562 50.892071 -231.205444
v -66.976562 38.245613 -231.205444
v -71.969391 38.245613 -231.205444
v -71.969391 50.892071 -231.205444
v -66.976562 12.952696 -231.205444
v -66.976562 0.306237 -231.205444
v -71.969391 0.306237 -231.205444
v -71.969391 12.952696 -231.205444
v -84.604584 12.952696 -231.210480
v -84.604584 0.306237 -231.210480
v -84.604584 0.306237 -218.564026
v -84.604584 12.952698 -218.564026
v -84.604584 25.599155 -231.210480
v -84.604584 12.952696 -231.210480
v -84.604584 12.952698 -218.564026
v -84.604584 25.599155 -218.564026
v -84.604584 12.952698 -218.564026
v -84.604584 0.306237 -218.564026
v -84.604584 0.306239 -205.917572
v -84.604584 12.952700 -205.917572
v -84.604584 25.599155 -218.564026
v -84.604584 12.952698 -218.564026
v -84.604584 12.952700 -205.917572
v -84.604584 25.599159 -205.917572
v -84.604584 38.245621 -218.564026
v -84.604584 25.599155 -218.564026
v -84.604584 25.599159 -205.917572
v -84.604584 38.245621 -205.917572
v -84.604584 50.892078 -218.564026
v -84.604584 38.245621 -218.564026
v -84.604584 38.245621 -205.917572
v -84.604584 50.892078 -205.917572
v -59.323105 12.952698 -218.519302
v -59.323105 0.306237 -218.519302
v -59.323036 0.306237 -223.551788
v -59.323036 12.952696 -223.551788
v -59.323105 25.599155 -218.519302
v -59.323105 12.952698 -218.519302
v -59.323036 12.952696 -223.551788
v -59.323105 25.599155 -223.512100
v -59.323105 50.892078 -218.519302
v -59.323105 38.245621 -218.519302
v -59.323036 38.245621 -223.551788
v -59.323036 50.892078 -223.551788
v -71.969391 12.952696 -231.205444
v -71.969391 0.306237 -231.205444
v -84.604584 0.306237 -231.210480
v -84.604584 12.952696 -231.210480
v -71.969391 25.599155 -231.205444
v -71.969391 12.952696 -231.205444
v -84.604584 12.952696 -231.210480
v -84.604584 25.599155 -231.210480
v -71.969391 38.245613 -231.205444
v -84.604584 25.599155 -231.210480
v -84.615845 38.245613 -231.205444
v -71.969391 50.892071 -231.205444
v -71.969391 38.245613 -231.205444
v -84.615845 38.245613 -231.205444
v -84.604584 50.892071 -231.210480
v -59.323036 12.952696 -223.551788
v -59.323036 0.306237 -223.551788
v -66.976562 0.306237 -231.205444
v -66.976562 12.952696 -231.205444
v -59.323036 50.892078 -223.551788
v -59.323036 38.245621 -223.551788
v -66.976562 38.245613 -231.205444
v -66.976562 50.892071 -231.205444
v -59.323105 38.245621 -218.519302
v -59.323105 25.599155 -218.519302
v -59.323105 25.599155 -223.512100
v -59.323036 38.245621 -223.551788
v -66.976700 25.599155 -231.189774
v -66.976562 12.952696 -231.205444
v -71.969391 12.952696 -231.205444
v -71.969391 25.599155 -231.205444
v -84.615845 38.245613 -231.205444
v -84.604584 25.599155 -231.210480
v -84.604584 25.599155 -218.564026
v -84.604584 38.245621 -218.564026
v -84.604584 50.892071 -231.210480
v -84.615845 38.245613 -231.205444
v -84.604584 38.245621 -218.564026
v -84.604584 50.892078 -218.564026
v -66.976562 38.245613 -231.205444
v -66.976700 25.599155 -231.189774
v -71.969391 25.599155 -231.205444
v -71.969391 38.245613 -231.205444
v -71.969391 25.599155 -231.205444
v -66.976700 25.599155 -231.189774
v -66.976562 38.245613 -231.205444
v -59.323036 38.245621 -223.551788
v -59.323105 25.599155 -223.512100
v -66.976562 12.952696 -231.205444
v -66.976700 25.599155 -231.189774
v -59.323105 25.599155 -223.512100
v -59.323036 12.952696 -223.551788
vn -0.0035 -0.0000 1.0000
vn -0.0000 -0.0000 1.0000
vn -0.0001 -0.0001 1.0000
vn -0.0001 -0.0000 1.0000
vn -0.0000 0.0001 1.0000
vn 1.0000 -0.0000 -0.0000
vn -0.0000 -0.0000 -1.0000
vn -1.0000 -0.0000 -0.0000
vn 0.0004 -0.0000 -1.0000
vn 0.0002 0.0002 -1.0000
vn 0.0004 -0.0004 -1.0000
vn 0.7071 -0.0000 -0.7071
vn 0.0018 0.0006 -1.0000
vn 0.0016 0.0006 -1.0000
vn -1.0000 -0.0004 0.0004
vn -1.0000 -0.0009 -0.0000
vn -1.0000 -0.0000 0.0009
vn -1.0000 0.0004 0.0004
vn -1.0000 0.0007 0.0007
vn -1.0000 0.0003 0.0003
vn 0.0018 -0.0006 -1.0000
vn 0.0016 -0.0006 -1.0000
vn 0.0018 -0.0008 -1.0000
vn 0.7077 -0.0016 -0.7065
vn 0.7077 -0.0015 -0.7066
vn 0.7076 -0.0015 -0.7066
vn 0.7078 -0.0017 -0.7065
vn 0.7076 0.0016 -0.7066
vn 0.7077 0.0015 -0.7065
vt 0.000200 0.999800
vt 0.499800 0.999800
vt 0.499800 0.500200
vt 0.000200 0.500200
vt 0.000200 0.999800
vt 0.499800 0.999800
vt 0.499800 0.500200
vt 0.000200 0.500200
vt 0.000200 0.999800
vt 0.499800 0.999800
vt 0.499800 0.500200
vt 0.000200 0.500200
vt 0.000200 0.999800
vt 0.499800 0.999800
vt 0.499800 0.500200
vt 0.000200 0.500200
vt 0.000200 0.999800
vt 0.499800 0.999800
vt 0.499800 0.500200
vt 0.000200 0.500200
vt 0.000200 0.999800
vt 0.499800 0.999800
vt 0.499800 0.500200
vt 0.000200 0.500200
vt 0.000200 0.999800
vt 0.499800 0.999800
vt 0.499800 0.500200
vt 0.000200 0.500200
vt 0.000200 0.999800
vt 0.499800 0.999800
vt 0.499800 0.500200
vt 0.000200 0.500200
vt 0.000200 0.999800
vt 0.499800 0.999800
vt 0.499800 0.500200
vt 0.000200 0.500200
vt 0.000200 0.999800
vt 0.499800 0.999800
vt 0.499800 0.500200
vt 0.000200 0.500200
vt 0.000200 0.999800
vt 0.499800 0.999800
vt 0.499800 0.500200
vt 0.000200 0.500200
vt 0.000200 0.999800
vt 0.499800 0.999800
vt 0.499800 0.500200
vt 0.000200 0.500200
vt 0.000200 0.697442
vt 0.499800 0.697442
vt 0.499800 0.500200
vt 0.000200 0.500200
vt 0.000200 0.697442
vt 0.499800 0.697442
vt 0.499800 0.500200
vt 0.000200 0.500200
vt 0.000200 0.999800
vt 0.499800 0.999800
vt 0.499800 0.500200
vt 0.000200 0.500200
vt 0.000200 0.999800
vt 0.499800 0.999800
vt 0.499800 0.500200
vt 0.000200 0.500200
vt 0.000200 0.999800
vt 0.499800 0.999800
vt 0.499800 0.500200
vt 0.000200 0.500200
vt 0.000200 0.999800
vt 0.499800 0.999800
vt 0.499800 0.500200
vt 0.000200 0.500200
vt 0.000200 0.999800
vt 0.499800 0.999800
vt 0.499800 0.500200
vt 0.000200 0.500200
vt 0.000200 0.999800
vt 0.499800 0.999800
vt 0.499800 0.500200
vt 0.000200 0.500200
vt 0.000200 0.999800
vt 0.499800 0.999800
vt 0.499800 0.801613
vt 0.000200 0.801613
vt 0.000200 0.999800
vt 0.499800 0.999800
vt 0.499800 0.801613
vt 0.000200 0.802559
vt 0.000200 0.999800
vt 0.499800 0.999800
vt 0.499800 0.801613
vt 0.000200 0.801613
vt 0.000200 0.999800
vt 0.499800 0.999800
vt 0.499800 0.500200
vt 0.000200 0.500200
vt 0.000200 0.999800
vt 0.499800 0.999800
vt 0.499800 0.500200
vt 0.000200 0.500200
vt 0.000200 0.999800
vt 0.499800 0.500200
vt 0.000200 0.500200
vt 0.000200 0.999800
vt 0.499800 0.999800
vt 0.499800 0.500200
vt 0.000200 0.500200
vt 0.000200 0.801613
vt 0.499800 0.801613
vt 0.499800 0.500200
vt 0.000200 0.500200
vt 0.000200 0.801613
vt 0.499800 0.801613
vt 0.499800 0.500200
vt 0.000200 0.500200
vt 0.000200 0.999800
vt 0.499800 0.999800
vt 0.499800 0.802559
vt 0.000200 0.801613
vt 0.000200 0.697440
vt 0.499800 0.697442
vt 0.499800 0.500200
vt 0.000200 0.500200
vt 0.000200 0.999800
vt 0.499800 0.999800
vt 0.499800 0.500200
vt 0.000200 0.500200
vt 0.000200 0.999800
vt 0.499800 0.999800
vt 0.499800 0.500200
vt 0.000200 0.500200
vt 0.000200 0.697442
vt 0.499800 0.697440
vt 0.499800 0.500200
vt 0.000200 0.500200
vt 0.499800 0.999800
vt 0.499800 0.500200
vt 0.000204 0.500200
vt 0.000200 0.801613
vt 0.499800 0.802559
vt 0.499796 0.500200
vt 0.000200 0.500200
vt 0.000200 0.802559
vt 0.499800 0.801613
s 0
usemtl fasades2.001
f 1/1/1 2/2/1 3/3/1
f 1/1/1 3/3/1 4/4/1
f 5/5/1 6/6/1 7/7/1
f 5/5/1 7/7/1 8/8/1
f 9/9/1 10/10/1 11/11/1
f 9/9/1 11/11/1 12/12/1
f 13/13/1 14/14/1 15/15/1
f 13/13/1 15/15/1 16/16/1
f 17/17/2 18/18/2 19/19/2
f 17/17/2 19/19/2 20/20/2
f 21/21/2 22/22/2 23/23/2
f 21/21/3 23/23/3 24/24/3
f 25/25/4 26/26/4 27/27/4
f 25/25/5 27/27/5 28/28/5
f 29/29/2 30/30/2 31/31/2
f 29/29/2 31/31/2 32/32/2
f 33/33/6 34/34/6 35/35/6
f 33/33/6 35/35/6 36/36/6
f 37/37/6 38/38/6 39/39/6
f 37/37/6 39/39/6 40/40/6
f 41/41/6 42/42/6 43/43/6
f 41/41/6 43/43/6 44/44/6
f 45/45/6 46/46/6 47/47/6
f 45/45/6 47/47/6 48/48/6
f 49/49/7 50/50/7 51/51/7
f 49/49/7 51/51/7 52/52/7
f 53/53/7 54/54/7 55/55/7
f 53/53/7 55/55/7 56/56/7
f 57/57/8 58/58/8 59/59/8
f 57/57/8 59/59/8 60/60/8
f 61/61/8 62/62/8 63/63/8
f 61/61/8 63/63/8 64/64/8
f 65/65/8 66/66/8 67/67/8
f 65/65/8 67/67/8 68/68/8
f 69/69/8 70/70/8 71/71/8
f 69/69/8 71/71/8 72/72/8
f 73/73/8 74/74/8 75/75/8
f 73/73/8 75/75/8 76/76/8
f 77/77/8 78/78/8 79/79/8
f 77/77/8 79/79/8 80/80/8
f 81/81/6 82/82/6 83/83/6
f 81/81/6 83/83/6 84/84/6
f 85/85/6 86/86/6 87/87/6
f 85/85/6 87/87/6 88/88/6
f 89/89/6 90/90/6 91/91/6
f 89/89/6 91/91/6 92/92/6
f 93/93/9 94/94/9 95/95/9
f 93/93/9 95/95/9 96/96/9
f 97/97/9 98/98/9 99/99/9
f 97/97/9 99/99/9 100/100/9
f 101/101/10 102/102/10 103/103/10
f 104/104/7 105/105/7 106/106/7
f 104/104/11 106/106/11 107/107/11
f 108/108/12 109/109/12 110/110/12
f 108/108/12 110/110/12 111/111/12
f 112/112/12 113/113/12 114/114/12
f 112/112/12 114/114/12 115/115/12
f 116/116/6 117/117/6 118/118/6
f 116/116/6 118/118/6 119/119/6
s 1
f 120/120/13 121/121/14 122/122/14
f 120/120/13 122/122/14 123/123/14
f 124/124/15 125/125/16 126/126/15
f 124/124/15 126/126/15 127/127/17
f 128/128/18 129/129/19 130/130/18
f 128/128/18 130/130/18 131/131/20
f 132/132/21 133/133/22 134/134/23
f 132/132/21 134/134/23 135/135/22
f 101/101/9 136/136/9 102/102/9
f 137/137/24 138/138/25 139/139/26
f 137/137/24 139/139/26 140/140/27
f 141/141/28 142/142/28 143/143/29
f 141/141/28 143/143/29 144/144/28
