# Blender 3.5.1
# www.blender.org
mtllib cross.mtl
o Cube
v 2.273932 0.010032 -0.738262
v 2.273363 -0.065551 -0.737275
v -0.006828 0.027080 -0.746311
v -0.007396 -0.048504 -0.745323
v 2.268279 0.031604 0.909154
v 2.267711 -0.043979 0.910141
v -0.012480 0.048652 0.901105
v -0.013049 -0.026931 0.902093
v 2.270462 -0.054477 0.108438
v -0.009816 0.038483 0.124524
v -0.010298 -0.037429 0.100390
v 2.270944 0.021435 0.132572
v -0.010105 -0.038166 0.044155
v 2.271290 0.020112 0.031536
v 2.270654 -0.055213 0.052204
v -0.009469 0.037160 0.023487
v -0.007557 -0.047892 -0.698630
v 2.273771 0.010643 -0.691570
v 2.273203 -0.064940 -0.690582
v -0.006988 0.027691 -0.699618
v 2.267898 -0.044694 0.855519
v -0.012293 0.047937 0.846483
v -0.012861 -0.027647 0.847471
v 2.268467 0.030889 0.854531
v 1.826284 -0.040680 0.908584
v 1.832505 0.013331 -0.739820
v 1.826853 0.034904 0.907596
v 1.831937 -0.062252 -0.738832
v 1.829035 -0.051178 0.106880
v 1.829517 0.024735 0.131014
v 1.829864 0.023412 0.029978
v 1.829228 -0.051914 0.050646
v 1.832345 0.013943 -0.693128
v 1.831776 -0.061640 -0.692140
v 1.826472 -0.041395 0.853961
v 1.827040 0.034188 0.852974
v 1.484774 -0.038127 0.907378
v 1.490994 0.015884 -0.741025
v 1.487525 -0.048625 0.105675
v 1.488007 0.027287 0.129809
v 1.488353 0.025964 0.028773
v 1.487717 -0.049361 0.049441
v 1.490834 0.016495 -0.694333
v 1.490266 -0.059088 -0.693345
v 1.484961 -0.038842 0.852756
v 1.485530 0.036741 0.851768
v 1.485342 0.037456 0.906391
v 1.490426 -0.059699 -0.740038
v 1.067214 -0.035006 0.905905
v 1.073435 0.019005 -0.742499
v 1.069965 -0.045504 0.104202
v 1.070447 0.030408 0.128336
v 1.070793 0.029085 0.027299
v 1.070157 -0.046240 0.047967
v 1.073274 0.019616 -0.695806
v 1.072706 -0.055967 -0.694818
v 1.067401 -0.035721 0.851283
v 1.067970 0.039862 0.850295
v 1.067782 0.040577 0.904917
v 1.072866 -0.056578 -0.741511
v 0.687789 -0.032170 0.904566
v 0.694010 0.021841 -0.743838
v 0.690540 -0.042668 0.102863
v 0.691022 0.033244 0.126997
v 0.691369 0.031921 0.025960
v 0.690733 -0.043404 0.046628
v 0.693850 0.022453 -0.697145
v 0.693281 -0.053131 -0.696157
v 0.687977 -0.032885 0.849944
v 0.688545 0.042698 0.848956
v 0.688358 0.043413 0.903578
v 0.693442 -0.053742 -0.742850
v 0.337370 -0.029551 0.903329
v 0.343591 0.024460 -0.745074
v 0.340121 -0.040049 0.101626
v 0.340603 0.035864 0.125760
v 0.340950 0.034541 0.024724
v 0.340314 -0.040785 0.045392
v 0.343431 0.025072 -0.698382
v 0.342862 -0.050511 -0.697394
v 0.337558 -0.030266 0.848707
v 0.338126 0.045317 0.847719
v 0.337939 0.046033 0.902342
v 0.343023 -0.051123 -0.744087
vn 0.0075 0.9999 -0.0131
vn -1.0000 0.0075 -0.0035
vn -0.0034 0.0131 0.9999
vn -0.0075 -0.9999 0.0131
vn 0.0034 -0.0131 -0.9999
vn 1.0000 -0.0075 0.0035
vt 0.625000 0.500000
vt 0.375000 0.500000
vt 0.625000 0.750000
vt 0.375000 0.750000
vt 0.625000 0.250000
vt 0.875000 0.500000
vt 0.375000 0.250000
vt 0.125000 0.500000
vt 0.875000 0.750000
vt 0.625000 1.000000
vt 0.625000 0.000000
vt 0.375000 1.000000
vt 0.125000 0.750000
vt 0.375000 0.000000
vt 0.375000 0.367848
vt 0.242848 0.500000
vt 0.625000 0.882152
vt 0.757152 0.750000
vt 0.242848 0.750000
vt 0.375000 0.882152
vt 0.625000 0.367848
vt 0.757152 0.500000
vt 0.375000 0.866819
vt 0.258181 0.750000
vt 0.625000 0.383181
vt 0.741819 0.500000
vt 0.375000 0.383181
vt 0.258181 0.500000
vt 0.741819 0.750000
vt 0.625000 0.866819
vt 0.375000 0.757086
vt 0.367914 0.750000
vt 0.625000 0.492914
vt 0.632086 0.500000
vt 0.375000 0.492914
vt 0.367914 0.500000
vt 0.625000 0.757086
vt 0.632086 0.750000
vt 0.375000 0.258289
vt 0.133289 0.500000
vt 0.625000 0.991711
vt 0.866711 0.750000
vt 0.133289 0.750000
vt 0.375000 0.991711
vt 0.625000 0.258289
vt 0.866711 0.500000
vt 0.375000 0.201614
vt 0.125000 0.548386
vt 0.625000 0.548386
vt 0.625000 0.201614
vt 0.875000 0.548386
vt 0.375000 0.548386
vt 0.242848 0.548386
vt 0.757152 0.548386
vt 0.741819 0.548386
vt 0.258181 0.548386
vt 0.632086 0.548386
vt 0.367914 0.548386
vt 0.133289 0.548386
vt 0.866711 0.548386
vt 0.375000 0.164180
vt 0.125000 0.585820
vt 0.625000 0.585820
vt 0.242848 0.585820
vt 0.757152 0.585820
vt 0.741819 0.585820
vt 0.258181 0.585820
vt 0.632086 0.585820
vt 0.367914 0.585820
vt 0.133289 0.585820
vt 0.866711 0.585820
vt 0.625000 0.164180
vt 0.875000 0.585820
vt 0.375000 0.585820
vt 0.375000 0.118410
vt 0.125000 0.631590
vt 0.625000 0.631590
vt 0.242848 0.631590
vt 0.757152 0.631590
vt 0.741819 0.631590
vt 0.258181 0.631590
vt 0.632086 0.631590
vt 0.367914 0.631590
vt 0.133289 0.631590
vt 0.866711 0.631590
vt 0.625000 0.118410
vt 0.875000 0.631590
vt 0.375000 0.631590
vt 0.375000 0.076821
vt 0.125000 0.673179
vt 0.625000 0.673179
vt 0.242848 0.673179
vt 0.757152 0.673179
vt 0.741819 0.673179
vt 0.258181 0.673179
vt 0.632086 0.673179
vt 0.367914 0.673179
vt 0.133289 0.673179
vt 0.866711 0.673179
vt 0.625000 0.076821
vt 0.875000 0.673179
vt 0.375000 0.673179
vt 0.375000 0.038410
vt 0.125000 0.711590
vt 0.625000 0.711590
vt 0.242848 0.711590
vt 0.757152 0.711590
vt 0.741819 0.711590
vt 0.258181 0.711590
vt 0.632086 0.711590
vt 0.367914 0.711590
vt 0.133289 0.711590
vt 0.866711 0.711590
vt 0.625000 0.038410
vt 0.875000 0.711590
vt 0.375000 0.711590
s 0
usemtl Material
f 82/113/1 22/42/1 7/9/1 83/115/1
f 23/44/2 8/12/2 7/10/2 22/41/2
f 25/47/3 6/7/3 5/5/3 27/50/3
f 84/116/5 4/4/5 3/3/5 74/105/5
f 19/35/6 2/2/6 1/1/6 18/33/6
f 21/39/6 9/15/6 12/21/6 24/45/6
f 81/112/4 23/43/4 11/19/4 75/106/4
f 13/23/2 11/20/2 10/17/2 16/30/2
f 77/108/1 16/29/1 10/18/1 76/107/1
f 79/110/1 20/38/1 16/29/1 77/108/1
f 17/31/2 13/23/2 16/30/2 20/37/2
f 9/15/6 15/27/6 14/25/6 12/21/6
f 4/4/2 17/31/2 20/37/2 3/3/2
f 74/105/1 3/3/1 20/38/1 79/110/1
f 15/27/6 19/35/6 18/33/6 14/25/6
f 78/109/4 13/24/4 17/32/4 80/111/4
f 6/7/6 21/39/6 24/45/6 5/5/6
f 11/20/2 23/44/2 22/41/2 10/17/2
f 76/107/1 10/18/1 22/42/1 82/113/1
f 12/22/1 30/54/1 36/60/1 24/46/1
f 15/28/4 32/56/4 34/58/4 19/36/4
f 1/1/1 26/49/1 33/57/1 18/34/1
f 9/16/4 29/53/4 32/56/4 15/28/4
f 18/34/1 33/57/1 31/55/1 14/26/1
f 14/26/1 31/55/1 30/54/1 12/22/1
f 21/40/4 35/59/4 29/53/4 9/16/4
f 2/2/5 28/52/5 26/49/5 1/1/5
f 37/61/3 25/47/3 27/50/3 47/72/3
f 24/46/1 36/60/1 27/51/1 5/6/1
f 49/75/3 37/61/3 47/72/3 59/86/3
f 30/54/1 40/65/1 46/71/1 36/60/1
f 32/56/4 42/67/4 44/69/4 34/58/4
f 26/49/1 38/63/1 43/68/1 33/57/1
f 33/57/1 43/68/1 41/66/1 31/55/1
f 31/55/1 41/66/1 40/65/1 30/54/1
f 35/59/4 45/70/4 39/64/4 29/53/4
f 28/52/5 48/74/5 38/63/5 26/49/5
f 36/60/1 46/71/1 47/73/1 27/51/1
f 61/89/3 49/75/3 59/86/3 71/100/3
f 40/65/1 52/79/1 58/85/1 46/71/1
f 42/67/4 54/81/4 56/83/4 44/69/4
f 38/63/1 50/77/1 55/82/1 43/68/1
f 39/64/4 51/78/4 54/81/4 42/67/4
f 43/68/1 55/82/1 53/80/1 41/66/1
f 41/66/1 53/80/1 52/79/1 40/65/1
f 45/70/4 57/84/4 51/78/4 39/64/4
f 48/74/5 60/88/5 50/77/5 38/63/5
f 46/71/1 58/85/1 59/87/1 47/73/1
f 73/103/3 61/89/3 71/100/3 83/114/3
f 52/79/1 64/93/1 70/99/1 58/85/1
f 54/81/4 66/95/4 68/97/4 56/83/4
f 50/77/1 62/91/1 67/96/1 55/82/1
f 55/82/1 67/96/1 65/94/1 53/80/1
f 53/80/1 65/94/1 64/93/1 52/79/1
f 57/84/4 69/98/4 63/92/4 51/78/4
f 60/88/5 72/102/5 62/91/5 50/77/5
f 58/85/1 70/99/1 71/101/1 59/87/1
f 8/14/3 73/103/3 83/114/3 7/11/3
f 64/93/1 76/107/1 82/113/1 70/99/1
f 66/95/4 78/109/4 80/111/4 68/97/4
f 62/91/1 74/105/1 79/110/1 67/96/1
f 63/92/4 75/106/4 78/109/4 66/95/4
f 67/96/1 79/110/1 77/108/1 65/94/1
f 65/94/1 77/108/1 76/107/1 64/93/1
f 69/98/4 81/112/4 75/106/4 63/92/4
f 72/102/5 84/116/5 74/105/5 62/91/5
f 70/99/1 82/113/1 83/115/1 71/101/1
usemtl Material.001
f 80/111/4 17/32/4 4/4/4 84/116/4
f 75/106/4 11/19/4 13/24/4 78/109/4
f 73/104/4 8/13/4 23/43/4 81/112/4
f 6/8/4 25/48/4 35/59/4 21/40/4
f 19/36/4 34/58/4 28/52/4 2/2/4
f 25/48/4 37/62/4 45/70/4 35/59/4
f 29/53/4 39/64/4 42/67/4 32/56/4
f 34/58/4 44/69/4 48/74/4 28/52/4
f 37/62/4 49/76/4 57/84/4 45/70/4
f 44/69/4 56/83/4 60/88/4 48/74/4
f 49/76/4 61/90/4 69/98/4 57/84/4
f 51/78/4 63/92/4 66/95/4 54/81/4
f 56/83/4 68/97/4 72/102/4 60/88/4
f 61/90/4 73/104/4 81/112/4 69/98/4
f 68/97/4 80/111/4 84/116/4 72/102/4
o Cube.001
v 0.013049 0.026931 -0.746241
v 0.012480 -0.048652 -0.745253
v -2.267711 0.043979 -0.754289
v -2.268279 -0.031604 -0.753301
v 0.007396 0.048504 0.901175
v 0.006828 -0.027080 0.902163
v -2.273363 0.065551 0.893127
v -2.273932 -0.010032 0.894115
v 0.009579 -0.037578 0.100460
v -2.270699 0.055382 0.116545
v -2.271181 -0.020530 0.092411
v 0.010061 0.038335 0.124594
v -2.270988 -0.021266 0.036177
v 0.010408 0.037012 0.023557
v 0.009772 -0.038314 0.044225
v -2.270352 0.054059 0.015509
v -2.268440 -0.030993 -0.706609
v 0.012888 0.027543 -0.699548
v 0.012320 -0.048040 -0.698560
v -2.267871 0.044591 -0.707597
v 0.007015 -0.027795 0.847541
v -2.273176 0.064836 0.838505
v -2.273744 -0.010747 0.839492
v 0.007584 0.047788 0.846553
v -0.434598 -0.023780 0.900605
v -0.428378 0.030231 -0.747799
v -0.434030 0.051803 0.899617
v -0.428946 -0.045352 -0.746811
v -0.431848 -0.034278 0.098902
v -0.431366 0.041634 0.123036
v -0.431019 0.040311 0.022000
v -0.431655 -0.035014 0.042668
v -0.428538 0.030842 -0.701106
v -0.429106 -0.044741 -0.700118
v -0.434411 -0.024495 0.845983
v -0.433843 0.051088 0.844995
v -0.776109 -0.021227 0.899400
v -0.769888 0.032784 -0.749004
v -0.773358 -0.031725 0.097697
v -0.772876 0.044187 0.121831
v -0.772529 0.042864 0.020795
v -0.773165 -0.032462 0.041462
v -0.770049 0.033395 -0.702311
v -0.770617 -0.042188 -0.701323
v -0.775922 -0.021943 0.844778
v -0.775353 0.053641 0.843790
v -0.775541 0.054356 0.898412
v -0.770457 -0.042800 -0.748016
v -1.193669 -0.018106 0.897927
v -1.187448 0.035905 -0.750477
v -1.190918 -0.028604 0.096223
v -1.190436 0.047308 0.120357
v -1.190089 0.045985 0.019321
v -1.190725 -0.029341 0.039989
v -1.187608 0.036516 -0.703784
v -1.188177 -0.039067 -0.702797
v -1.193482 -0.018822 0.843304
v -1.192913 0.056762 0.842317
v -1.193100 0.057477 0.896939
v -1.188017 -0.039679 -0.749489
v -1.573094 -0.015270 0.896588
v -1.566873 0.038741 -0.751816
v -1.570343 -0.025768 0.094884
v -1.569861 0.050144 0.119018
v -1.569514 0.048821 0.017982
v -1.570150 -0.026505 0.038650
v -1.567033 0.039352 -0.705123
v -1.567602 -0.036231 -0.704136
v -1.572906 -0.015986 0.841966
v -1.572338 0.059598 0.840978
v -1.572525 0.060313 0.895600
v -1.567441 -0.036843 -0.750828
v -1.923512 -0.012651 0.895351
v -1.917292 0.041360 -0.753053
v -1.920762 -0.023149 0.093648
v -1.920280 0.052763 0.117782
v -1.919933 0.051440 0.016746
v -1.920569 -0.023885 0.037414
v -1.917452 0.041971 -0.706360
v -1.918020 -0.033612 -0.705372
v -1.923325 -0.013366 0.840729
v -1.922757 0.062217 0.839741
v -1.922944 0.062932 0.894363
v -1.917860 -0.034223 -0.752065
vn 0.0075 0.9999 -0.0131
vn -1.0000 0.0075 -0.0035
vn -0.0034 0.0131 0.9999
vn -0.0075 -0.9999 0.0131
vn 0.0034 -0.0131 -0.9999
vn 1.0000 -0.0075 0.0035
vt 0.625000 0.500000
vt 0.375000 0.500000
vt 0.625000 0.750000
vt 0.375000 0.750000
vt 0.625000 0.250000
vt 0.875000 0.500000
vt 0.375000 0.250000
vt 0.125000 0.500000
vt 0.875000 0.750000
vt 0.625000 1.000000
vt 0.625000 0.000000
vt 0.375000 1.000000
vt 0.125000 0.750000
vt 0.375000 0.000000
vt 0.375000 0.367848
vt 0.242848 0.500000
vt 0.625000 0.882152
vt 0.757152 0.750000
vt 0.242848 0.750000
vt 0.375000 0.882152
vt 0.625000 0.367848
vt 0.757152 0.500000
vt 0.375000 0.866819
vt 0.258181 0.750000
vt 0.625000 0.383181
vt 0.741819 0.500000
vt 0.375000 0.383181
vt 0.258181 0.500000
vt 0.741819 0.750000
vt 0.625000 0.866819
vt 0.375000 0.757086
vt 0.367914 0.750000
vt 0.625000 0.492914
vt 0.632086 0.500000
vt 0.375000 0.492914
vt 0.367914 0.500000
vt 0.625000 0.757086
vt 0.632086 0.750000
vt 0.375000 0.258289
vt 0.133289 0.500000
vt 0.625000 0.991711
vt 0.866711 0.750000
vt 0.133289 0.750000
vt 0.375000 0.991711
vt 0.625000 0.258289
vt 0.866711 0.500000
vt 0.375000 0.201614
vt 0.125000 0.548386
vt 0.625000 0.548386
vt 0.625000 0.201614
vt 0.875000 0.548386
vt 0.375000 0.548386
vt 0.242848 0.548386
vt 0.757152 0.548386
vt 0.741819 0.548386
vt 0.258181 0.548386
vt 0.632086 0.548386
vt 0.367914 0.548386
vt 0.133289 0.548386
vt 0.866711 0.548386
vt 0.375000 0.164180
vt 0.125000 0.585820
vt 0.625000 0.585820
vt 0.242848 0.585820
vt 0.757152 0.585820
vt 0.741819 0.585820
vt 0.258181 0.585820
vt 0.632086 0.585820
vt 0.367914 0.585820
vt 0.133289 0.585820
vt 0.866711 0.585820
vt 0.625000 0.164180
vt 0.875000 0.585820
vt 0.375000 0.585820
vt 0.375000 0.118410
vt 0.125000 0.631590
vt 0.625000 0.631590
vt 0.242848 0.631590
vt 0.757152 0.631590
vt 0.741819 0.631590
vt 0.258181 0.631590
vt 0.632086 0.631590
vt 0.367914 0.631590
vt 0.133289 0.631590
vt 0.866711 0.631590
vt 0.625000 0.118410
vt 0.875000 0.631590
vt 0.375000 0.631590
vt 0.375000 0.076821
vt 0.125000 0.673179
vt 0.625000 0.673179
vt 0.242848 0.673179
vt 0.757152 0.673179
vt 0.741819 0.673179
vt 0.258181 0.673179
vt 0.632086 0.673179
vt 0.367914 0.673179
vt 0.133289 0.673179
vt 0.866711 0.673179
vt 0.625000 0.076821
vt 0.875000 0.673179
vt 0.375000 0.673179
vt 0.375000 0.038410
vt 0.125000 0.711590
vt 0.625000 0.711590
vt 0.242848 0.711590
vt 0.757152 0.711590
vt 0.741819 0.711590
vt 0.258181 0.711590
vt 0.632086 0.711590
vt 0.367914 0.711590
vt 0.133289 0.711590
vt 0.866711 0.711590
vt 0.625000 0.038410
vt 0.875000 0.711590
vt 0.375000 0.711590
s 0
usemtl Material.003
f 166/229/7 106/158/7 91/125/7 167/231/7
f 107/160/8 92/128/8 91/126/8 106/157/8
f 109/163/9 90/123/9 89/121/9 111/166/9
f 168/232/11 88/120/11 87/119/11 158/221/11
f 103/151/12 86/118/12 85/117/12 102/149/12
f 105/155/12 93/131/12 96/137/12 108/161/12
f 165/228/10 107/159/10 95/135/10 159/222/10
f 97/139/8 95/136/8 94/133/8 100/146/8
f 161/224/7 100/145/7 94/134/7 160/223/7
f 163/226/7 104/154/7 100/145/7 161/224/7
f 101/147/8 97/139/8 100/146/8 104/153/8
f 93/131/12 99/143/12 98/141/12 96/137/12
f 88/120/8 101/147/8 104/153/8 87/119/8
f 158/221/7 87/119/7 104/154/7 163/226/7
f 99/143/12 103/151/12 102/149/12 98/141/12
f 162/225/10 97/140/10 101/148/10 164/227/10
f 90/123/12 105/155/12 108/161/12 89/121/12
f 95/136/8 107/160/8 106/157/8 94/133/8
f 160/223/7 94/134/7 106/158/7 166/229/7
f 96/138/7 114/170/7 120/176/7 108/162/7
f 99/144/10 116/172/10 118/174/10 103/152/10
f 85/117/7 110/165/7 117/173/7 102/150/7
f 93/132/10 113/169/10 116/172/10 99/144/10
f 102/150/7 117/173/7 115/171/7 98/142/7
f 98/142/7 115/171/7 114/170/7 96/138/7
f 105/156/10 119/175/10 113/169/10 93/132/10
f 86/118/11 112/168/11 110/165/11 85/117/11
f 121/177/9 109/163/9 111/166/9 131/188/9
f 108/162/7 120/176/7 111/167/7 89/122/7
f 133/191/9 121/177/9 131/188/9 143/202/9
f 114/170/7 124/181/7 130/187/7 120/176/7
f 116/172/10 126/183/10 128/185/10 118/174/10
f 110/165/7 122/179/7 127/184/7 117/173/7
f 117/173/7 127/184/7 125/182/7 115/171/7
f 115/171/7 125/182/7 124/181/7 114/170/7
f 119/175/10 129/186/10 123/180/10 113/169/10
f 112/168/11 132/190/11 122/179/11 110/165/11
f 120/176/7 130/187/7 131/189/7 111/167/7
f 145/205/9 133/191/9 143/202/9 155/216/9
f 124/181/7 136/195/7 142/201/7 130/187/7
f 126/183/10 138/197/10 140/199/10 128/185/10
f 122/179/7 134/193/7 139/198/7 127/184/7
f 123/180/10 135/194/10 138/197/10 126/183/10
f 127/184/7 139/198/7 137/196/7 125/182/7
f 125/182/7 137/196/7 136/195/7 124/181/7
f 129/186/10 141/200/10 135/194/10 123/180/10
f 132/190/11 144/204/11 134/193/11 122/179/11
f 130/187/7 142/201/7 143/203/7 131/189/7
f 157/219/9 145/205/9 155/216/9 167/230/9
f 136/195/7 148/209/7 154/215/7 142/201/7
f 138/197/10 150/211/10 152/213/10 140/199/10
f 134/193/7 146/207/7 151/212/7 139/198/7
f 139/198/7 151/212/7 149/210/7 137/196/7
f 137/196/7 149/210/7 148/209/7 136/195/7
f 141/200/10 153/214/10 147/208/10 135/194/10
f 144/204/11 156/218/11 146/207/11 134/193/11
f 142/201/7 154/215/7 155/217/7 143/203/7
f 92/130/9 157/219/9 167/230/9 91/127/9
f 148/209/7 160/223/7 166/229/7 154/215/7
f 150/211/10 162/225/10 164/227/10 152/213/10
f 146/207/7 158/221/7 163/226/7 151/212/7
f 147/208/10 159/222/10 162/225/10 150/211/10
f 151/212/7 163/226/7 161/224/7 149/210/7
f 149/210/7 161/224/7 160/223/7 148/209/7
f 153/214/10 165/228/10 159/222/10 147/208/10
f 156/218/11 168/232/11 158/221/11 146/207/11
f 154/215/7 166/229/7 167/231/7 155/217/7
usemtl Material.002
f 164/227/10 101/148/10 88/120/10 168/232/10
f 159/222/10 95/135/10 97/140/10 162/225/10
f 157/220/10 92/129/10 107/159/10 165/228/10
f 90/124/10 109/164/10 119/175/10 105/156/10
f 103/152/10 118/174/10 112/168/10 86/118/10
f 109/164/10 121/178/10 129/186/10 119/175/10
f 113/169/10 123/180/10 126/183/10 116/172/10
f 118/174/10 128/185/10 132/190/10 112/168/10
f 121/178/10 133/192/10 141/200/10 129/186/10
f 128/185/10 140/199/10 144/204/10 132/190/10
f 133/192/10 145/206/10 153/214/10 141/200/10
f 135/194/10 147/208/10 150/211/10 138/197/10
f 140/199/10 152/213/10 156/218/10 144/204/10
f 145/206/10 157/220/10 165/228/10 153/214/10
f 152/213/10 164/227/10 168/232/10 156/218/10
